<svg width="166" height="75" viewBox="0 0 166 75" fill="none" xmlns="http://www.w3.org/2000/svg">
<g filter="url(#filter0_b_6_40)">
<path d="M42.017 9H39.0227C38.8456 8.13873 38.5357 7.3821 38.093 6.73011C37.6584 6.07812 37.1271 5.53078 36.4993 5.08807C35.8795 4.63731 35.1913 4.29924 34.4347 4.07386C33.678 3.84848 32.8892 3.73579 32.0682 3.73579C30.571 3.73579 29.2147 4.11411 27.9993 4.87074C26.7919 5.62737 25.83 6.74219 25.1136 8.2152C24.4053 9.68821 24.0511 11.4953 24.0511 13.6364C24.0511 15.7775 24.4053 17.5845 25.1136 19.0575C25.83 20.5305 26.7919 21.6454 27.9993 22.402C29.2147 23.1586 30.571 23.5369 32.0682 23.5369C32.8892 23.5369 33.678 23.4242 34.4347 23.1989C35.1913 22.9735 35.8795 22.6394 36.4993 22.1967C37.1271 21.746 37.6584 21.1946 38.093 20.5426C38.5357 19.8826 38.8456 19.1259 39.0227 18.2727H42.017C41.7917 19.5365 41.3812 20.6674 40.7855 21.6655C40.1899 22.6636 39.4493 23.5128 38.5639 24.2131C37.6785 24.9053 36.6844 25.4325 35.5817 25.7947C34.487 26.157 33.3158 26.3381 32.0682 26.3381C29.9593 26.3381 28.0838 25.8229 26.4418 24.7926C24.7997 23.7623 23.5078 22.2973 22.5661 20.3977C21.6243 18.4981 21.1534 16.2443 21.1534 13.6364C21.1534 11.0284 21.6243 8.77462 22.5661 6.875C23.5078 4.97538 24.7997 3.51042 26.4418 2.48011C28.0838 1.44981 29.9593 0.934658 32.0682 0.934658C33.3158 0.934658 34.487 1.11577 35.5817 1.47798C36.6844 1.8402 37.6785 2.37145 38.5639 3.07173C39.4493 3.76397 40.1899 4.60914 40.7855 5.60724C41.3812 6.5973 41.7917 7.72822 42.017 9ZM54.0034 26.3864C52.3291 26.3864 50.8601 25.9879 49.5964 25.1911C48.3407 24.3942 47.3587 23.2794 46.6504 21.8466C45.9501 20.4138 45.6 18.7396 45.6 16.8239C45.6 14.892 45.9501 13.2057 46.6504 11.7649C47.3587 10.3241 48.3407 9.20526 49.5964 8.40838C50.8601 7.61151 52.3291 7.21307 54.0034 7.21307C55.6776 7.21307 57.1426 7.61151 58.3983 8.40838C59.662 9.20526 60.644 10.3241 61.3443 11.7649C62.0526 13.2057 62.4068 14.892 62.4068 16.8239C62.4068 18.7396 62.0526 20.4138 61.3443 21.8466C60.644 23.2794 59.662 24.3942 58.3983 25.1911C57.1426 25.9879 55.6776 26.3864 54.0034 26.3864ZM54.0034 23.8267C55.2752 23.8267 56.3216 23.5007 57.1426 22.8487C57.9636 22.1967 58.5713 21.3395 58.9657 20.277C59.3601 19.2145 59.5574 18.0634 59.5574 16.8239C59.5574 15.5843 59.3601 14.4292 58.9657 13.3587C58.5713 12.2881 57.9636 11.4228 57.1426 10.7628C56.3216 10.1027 55.2752 9.77273 54.0034 9.77273C52.7316 9.77273 51.6852 10.1027 50.8642 10.7628C50.0431 11.4228 49.4354 12.2881 49.041 13.3587C48.6466 14.4292 48.4494 15.5843 48.4494 16.8239C48.4494 18.0634 48.6466 19.2145 49.041 20.277C49.4354 21.3395 50.0431 22.1967 50.8642 22.8487C51.6852 23.5007 52.7316 23.8267 54.0034 23.8267ZM69.6058 14.8438V26H66.7564V7.45454H69.5092V10.3523H69.7507C70.1854 9.41051 70.8454 8.65388 71.7308 8.08239C72.6162 7.50284 73.7592 7.21307 75.1598 7.21307C76.4155 7.21307 77.5142 7.47064 78.456 7.98579C79.3977 8.4929 80.1302 9.26562 80.6534 10.304C81.1766 11.3343 81.4382 12.6383 81.4382 14.2159V26H78.5888V14.4091C78.5888 12.9522 78.2105 11.8172 77.4538 11.0043C76.6972 10.1832 75.6589 9.77273 74.3388 9.77273C73.4292 9.77273 72.6162 9.96993 71.8999 10.3643C71.1915 10.7588 70.6321 11.3343 70.2216 12.0909C69.8111 12.8475 69.6058 13.7652 69.6058 14.8438ZM94.7104 7.45454V9.86932H85.0996V7.45454H94.7104ZM87.9007 3.01136H90.7502V20.6875C90.7502 21.4924 90.8669 22.0961 91.1003 22.4986C91.3418 22.893 91.6477 23.1586 92.0179 23.2955C92.3962 23.4242 92.7947 23.4886 93.2132 23.4886C93.5272 23.4886 93.7847 23.4725 93.986 23.4403C94.1872 23.4001 94.3482 23.3679 94.4689 23.3438L95.0485 25.9034C94.8553 25.9759 94.5856 26.0483 94.2395 26.1207C93.8934 26.2012 93.4547 26.2415 92.9235 26.2415C92.1185 26.2415 91.3297 26.0684 90.557 25.7223C89.7923 25.3762 89.1564 24.849 88.6493 24.1406C88.1503 23.4323 87.9007 22.5388 87.9007 21.4602V3.01136ZM98.9966 26V7.45454H101.846V26H98.9966ZM100.445 4.36364C99.8901 4.36364 99.4112 4.17448 99.0087 3.79616C98.6143 3.41785 98.4171 2.96307 98.4171 2.43182C98.4171 1.90057 98.6143 1.44579 99.0087 1.06747C99.4112 0.689157 99.8901 0.5 100.445 0.5C101.001 0.5 101.476 0.689157 101.87 1.06747C102.273 1.44579 102.474 1.90057 102.474 2.43182C102.474 2.96307 102.273 3.41785 101.87 3.79616C101.476 4.17448 101.001 4.36364 100.445 4.36364ZM109.914 14.8438V26H107.065V7.45454H109.818V10.3523H110.059C110.494 9.41051 111.154 8.65388 112.039 8.08239C112.925 7.50284 114.068 7.21307 115.468 7.21307C116.724 7.21307 117.823 7.47064 118.765 7.98579C119.706 8.4929 120.439 9.26562 120.962 10.304C121.485 11.3343 121.747 12.6383 121.747 14.2159V26H118.897V14.4091C118.897 12.9522 118.519 11.8172 117.762 11.0043C117.006 10.1832 115.967 9.77273 114.647 9.77273C113.738 9.77273 112.925 9.96993 112.208 10.3643C111.5 10.7588 110.941 11.3343 110.53 12.0909C110.12 12.8475 109.914 13.7652 109.914 14.8438ZM138.641 18.4176V7.45454H141.491V26H138.641V22.8608H138.448C138.013 23.8026 137.337 24.6035 136.42 25.2635C135.502 25.9155 134.343 26.2415 132.942 26.2415C131.783 26.2415 130.753 25.9879 129.851 25.4808C128.95 24.9657 128.242 24.1929 127.726 23.1626C127.211 22.1243 126.954 20.8163 126.954 19.2386V7.45454H129.803V19.0455C129.803 20.3977 130.181 21.4763 130.938 22.2812C131.703 23.0862 132.677 23.4886 133.86 23.4886C134.568 23.4886 135.289 23.3075 136.021 22.9453C136.762 22.5831 137.381 22.0277 137.881 21.2791C138.388 20.5305 138.641 19.5767 138.641 18.4176ZM154.485 26.3864C152.698 26.3864 151.157 25.992 149.861 25.2031C148.573 24.4062 147.579 23.2955 146.879 21.8707C146.186 20.438 145.84 18.7718 145.84 16.8722C145.84 14.9725 146.186 13.2983 146.879 11.8494C147.579 10.3925 148.553 9.25758 149.8 8.4446C151.056 7.62358 152.521 7.21307 154.195 7.21307C155.161 7.21307 156.115 7.37405 157.057 7.69602C157.999 8.01799 158.856 8.54119 159.629 9.26562C160.401 9.98201 161.017 10.9318 161.476 12.1151C161.935 13.2983 162.164 14.7552 162.164 16.4858V17.6932H147.869V15.2301H159.266C159.266 14.1837 159.057 13.25 158.638 12.429C158.228 11.608 157.64 10.96 156.876 10.4851C156.119 10.0102 155.226 9.77273 154.195 9.77273C153.06 9.77273 152.078 10.0545 151.249 10.6179C150.428 11.1733 149.796 11.8977 149.354 12.7912C148.911 13.6847 148.69 14.6425 148.69 15.6648V17.3068C148.69 18.7074 148.931 19.8946 149.414 20.8686C149.905 21.8345 150.585 22.571 151.455 23.0781C152.324 23.5772 153.334 23.8267 154.485 23.8267C155.234 23.8267 155.91 23.7221 156.513 23.5128C157.125 23.2955 157.652 22.9735 158.095 22.5469C158.538 22.1122 158.88 21.5729 159.121 20.929L161.874 21.7017C161.585 22.6354 161.098 23.4564 160.413 24.1648C159.729 24.8651 158.884 25.4124 157.878 25.8068C156.872 26.1932 155.741 26.3864 154.485 26.3864ZM7.4858 67L0.724432 42.2727H3.76705L8.93466 62.4119H9.17614L14.4403 42.2727H17.821L23.0852 62.4119H23.3267L28.4943 42.2727H31.5369L24.7756 67H21.6847L16.2273 47.2955H16.0341L10.5767 67H7.4858ZM38.6122 67.4347C37.437 67.4347 36.3705 67.2133 35.4126 66.7706C34.4548 66.3198 33.6941 65.6719 33.1307 64.8267C32.5672 63.9735 32.2855 62.9432 32.2855 61.7358C32.2855 60.6733 32.4948 59.812 32.9134 59.152C33.3319 58.4839 33.8913 57.9607 34.5916 57.5824C35.2919 57.2041 36.0646 56.9223 36.9098 56.7372C37.763 56.544 38.6203 56.3911 39.4815 56.2784C40.6084 56.1335 41.522 56.0249 42.2223 55.9524C42.9306 55.8719 43.4458 55.7391 43.7678 55.554C44.0978 55.3688 44.2628 55.0469 44.2628 54.5881V54.4915C44.2628 53.3002 43.9368 52.3745 43.2848 51.7145C42.6409 51.0545 41.6629 50.7244 40.3509 50.7244C38.9905 50.7244 37.924 51.0223 37.1513 51.6179C36.3786 52.2135 35.8352 52.8494 35.5213 53.5256L32.8168 52.5597C33.2997 51.4328 33.9437 50.5554 34.7486 49.9276C35.5616 49.2917 36.447 48.849 37.4048 48.5994C38.3707 48.3419 39.3205 48.2131 40.2543 48.2131C40.8499 48.2131 41.5341 48.2855 42.3068 48.4304C43.0876 48.5672 43.8402 48.853 44.5646 49.2876C45.2971 49.7223 45.9048 50.3783 46.3878 51.2557C46.8707 52.133 47.1122 53.3082 47.1122 54.7812V67H44.2628V64.4886H44.1179C43.9247 64.8911 43.6027 65.3217 43.152 65.7805C42.7012 66.2393 42.1016 66.6297 41.353 66.9517C40.6044 67.2737 39.6908 67.4347 38.6122 67.4347ZM39.0469 64.875C40.1738 64.875 41.1236 64.6536 41.8963 64.2109C42.6771 63.7682 43.2647 63.1967 43.6591 62.4964C44.0616 61.7962 44.2628 61.0597 44.2628 60.2869V57.679C44.142 57.8239 43.8764 57.9567 43.4659 58.0774C43.0634 58.1901 42.5966 58.2907 42.0653 58.3793C41.5421 58.4598 41.031 58.5322 40.532 58.5966C40.041 58.6529 39.6425 58.7012 39.3366 58.7415C38.5961 58.8381 37.9039 58.995 37.2599 59.2124C36.6241 59.4216 36.1089 59.7396 35.7145 60.1662C35.3281 60.5848 35.1349 61.1562 35.1349 61.8807C35.1349 62.8707 35.5012 63.6193 36.2337 64.1264C36.9742 64.6255 37.9119 64.875 39.0469 64.875ZM60.3784 48.4545V50.8693H50.7676V48.4545H60.3784ZM53.5687 44.0114H56.4181V61.6875C56.4181 62.4924 56.5349 63.0961 56.7683 63.4986C57.0098 63.893 57.3156 64.1586 57.6859 64.2955C58.0642 64.4242 58.4627 64.4886 58.8812 64.4886C59.1951 64.4886 59.4527 64.4725 59.6539 64.4403C59.8552 64.4001 60.0162 64.3679 60.1369 64.3438L60.7164 66.9034C60.5233 66.9759 60.2536 67.0483 59.9075 67.1207C59.5614 67.2012 59.1227 67.2415 58.5914 67.2415C57.7865 67.2415 56.9977 67.0684 56.225 66.7223C55.4603 66.3762 54.8244 65.849 54.3173 65.1406C53.8182 64.4323 53.5687 63.5388 53.5687 62.4602V44.0114ZM71.9995 67.3864C70.2608 67.3864 68.7637 66.9759 67.508 66.1548C66.2523 65.3338 65.2864 64.2029 64.6103 62.7621C63.9341 61.3213 63.5961 59.6752 63.5961 57.8239C63.5961 55.9403 63.9422 54.2782 64.6344 52.8374C65.3347 51.3885 66.3087 50.2576 67.5563 49.4446C68.812 48.6236 70.2769 48.2131 71.9512 48.2131C73.2551 48.2131 74.4303 48.4545 75.4767 48.9375C76.5231 49.4205 77.3804 50.0966 78.0485 50.9659C78.7166 51.8352 79.1311 52.8494 79.2921 54.0085H76.4426C76.2253 53.1634 75.7424 52.4148 74.9938 51.7628C74.2533 51.1027 73.2551 50.7727 71.9995 50.7727C70.8887 50.7727 69.9147 51.0625 69.0776 51.642C68.2485 52.2135 67.6006 53.0225 67.1337 54.0689C66.6749 55.1072 66.4455 56.3267 66.4455 57.7273C66.4455 59.16 66.6709 60.4077 67.1216 61.4702C67.5804 62.5327 68.2244 63.3577 69.0534 63.9453C69.8906 64.5329 70.8726 64.8267 71.9995 64.8267C72.74 64.8267 73.4121 64.6979 74.0158 64.4403C74.6195 64.1828 75.1306 63.8125 75.5492 63.3295C75.9677 62.8466 76.2656 62.267 76.4426 61.5909H79.2921C79.1311 62.6856 78.7327 63.6716 78.0968 64.549C77.4689 65.4183 76.6358 66.1106 75.5975 66.6257C74.5672 67.1328 73.3678 67.3864 71.9995 67.3864ZM86.307 55.8438V67H83.4576V42.2727H86.307V51.3523H86.5485C86.9831 50.3944 87.6351 49.6338 88.5044 49.0703C89.3818 48.4988 90.5489 48.2131 92.0059 48.2131C93.2696 48.2131 94.3764 48.4666 95.3262 48.9737C96.276 49.4728 97.0125 50.2415 97.5357 51.2798C98.0669 52.3101 98.3326 53.6222 98.3326 55.2159V67H95.4831V55.4091C95.4831 53.9361 95.1008 52.7971 94.3361 51.9922C93.5795 51.1792 92.5291 50.7727 91.1848 50.7727C90.2511 50.7727 89.414 50.9699 88.6735 51.3643C87.941 51.7588 87.3614 52.3343 86.9348 53.0909C86.5163 53.8475 86.307 54.7652 86.307 55.8438ZM103.545 67V48.4545H106.395V67H103.545ZM104.994 45.3636C104.439 45.3636 103.96 45.1745 103.558 44.7962C103.163 44.4179 102.966 43.9631 102.966 43.4318C102.966 42.9006 103.163 42.4458 103.558 42.0675C103.96 41.6892 104.439 41.5 104.994 41.5C105.55 41.5 106.025 41.6892 106.419 42.0675C106.821 42.4458 107.023 42.9006 107.023 43.4318C107.023 43.9631 106.821 44.4179 106.419 44.7962C106.025 45.1745 105.55 45.3636 104.994 45.3636ZM114.463 55.8438V67H111.614V48.4545H114.367V51.3523H114.608C115.043 50.4105 115.703 49.6539 116.588 49.0824C117.474 48.5028 118.617 48.2131 120.017 48.2131C121.273 48.2131 122.372 48.4706 123.313 48.9858C124.255 49.4929 124.988 50.2656 125.511 51.304C126.034 52.3343 126.296 53.6383 126.296 55.2159V67H123.446V55.4091C123.446 53.9522 123.068 52.8172 122.311 52.0043C121.555 51.1832 120.516 50.7727 119.196 50.7727C118.287 50.7727 117.474 50.9699 116.757 51.3643C116.049 51.7588 115.49 52.3343 115.079 53.0909C114.669 53.8475 114.463 54.7652 114.463 55.8438ZM138.988 74.3409C137.612 74.3409 136.429 74.1638 135.439 73.8097C134.449 73.4635 133.623 73.0047 132.963 72.4332C132.311 71.8698 131.792 71.2661 131.406 70.6222L133.676 69.0284C133.933 69.3665 134.259 69.7528 134.654 70.1875C135.048 70.6302 135.587 71.0125 136.272 71.3345C136.964 71.6645 137.869 71.8295 138.988 71.8295C140.485 71.8295 141.721 71.4673 142.695 70.7429C143.669 70.0185 144.156 68.8835 144.156 67.3381V63.571H143.914C143.705 63.9091 143.407 64.3277 143.021 64.8267C142.643 65.3177 142.095 65.7564 141.379 66.1428C140.671 66.5211 139.713 66.7102 138.505 66.7102C137.008 66.7102 135.664 66.3561 134.473 65.6477C133.289 64.9394 132.352 63.9091 131.659 62.5568C130.975 61.2045 130.633 59.5625 130.633 57.6307C130.633 55.7311 130.967 54.0769 131.635 52.6683C132.303 51.2517 133.233 50.157 134.424 49.3842C135.616 48.6035 136.992 48.2131 138.554 48.2131C139.761 48.2131 140.719 48.4143 141.427 48.8168C142.144 49.2112 142.691 49.6619 143.069 50.169C143.456 50.6681 143.753 51.0786 143.963 51.4006H144.252V48.4545H147.005V67.5312C147.005 69.125 146.643 70.4209 145.919 71.419C145.202 72.4252 144.236 73.1617 143.021 73.6286C141.814 74.1035 140.469 74.3409 138.988 74.3409ZM138.892 64.1506C140.035 64.1506 141.001 63.889 141.789 63.3658C142.578 62.8426 143.178 62.09 143.588 61.108C143.999 60.1259 144.204 58.9508 144.204 57.5824C144.204 56.2462 144.003 55.067 143.6 54.0447C143.198 53.0225 142.602 52.2216 141.814 51.642C141.025 51.0625 140.051 50.7727 138.892 50.7727C137.684 50.7727 136.678 51.0786 135.873 51.6903C135.076 52.3021 134.477 53.1231 134.074 54.1534C133.68 55.1837 133.483 56.3267 133.483 57.5824C133.483 58.8703 133.684 60.0092 134.086 60.9993C134.497 61.9813 135.1 62.754 135.897 63.3175C136.702 63.8729 137.7 64.1506 138.892 64.1506ZM154.298 67.1932C153.702 67.1932 153.191 66.9799 152.765 66.5533C152.338 66.1267 152.125 65.6155 152.125 65.0199C152.125 64.4242 152.338 63.9131 152.765 63.4865C153.191 63.0599 153.702 62.8466 154.298 62.8466C154.894 62.8466 155.405 63.0599 155.831 63.4865C156.258 63.9131 156.471 64.4242 156.471 65.0199C156.471 65.4143 156.371 65.7765 156.169 66.1065C155.976 66.4366 155.715 66.7022 155.385 66.9034C155.063 67.0966 154.7 67.1932 154.298 67.1932ZM163.661 67.1932C163.066 67.1932 162.554 66.9799 162.128 66.5533C161.701 66.1267 161.488 65.6155 161.488 65.0199C161.488 64.4242 161.701 63.9131 162.128 63.4865C162.554 63.0599 163.066 62.8466 163.661 62.8466C164.257 62.8466 164.768 63.0599 165.195 63.4865C165.621 63.9131 165.835 64.4242 165.835 65.0199C165.835 65.4143 165.734 65.7765 165.533 66.1065C165.339 66.4366 165.078 66.7022 164.748 66.9034C164.426 67.0966 164.064 67.1932 163.661 67.1932Z" fill="white"/>
<path d="M42.017 9V10H43.2098L43.0017 8.8255L42.017 9ZM39.0227 9L38.0432 9.20139L38.2074 10H39.0227V9ZM38.093 6.73011L37.261 7.28483L37.2657 7.29186L38.093 6.73011ZM36.4993 5.08807L35.9111 5.8968L35.917 5.90111L35.923 5.90533L36.4993 5.08807ZM34.4347 4.07386L34.1492 5.03225L34.1492 5.03225L34.4347 4.07386ZM27.9993 4.87074L27.4708 4.02179L27.4683 4.02338L27.9993 4.87074ZM25.1136 8.2152L24.2143 7.77784L24.2124 7.78183L25.1136 8.2152ZM25.1136 19.0575L24.2124 19.4909L24.2143 19.4949L25.1136 19.0575ZM27.9993 22.402L27.4683 23.2494L27.4708 23.2509L27.9993 22.402ZM34.4347 23.1989L34.1492 22.2405L34.1492 22.2405L34.4347 23.1989ZM36.4993 22.1967L37.0805 23.0105L37.0825 23.0091L36.4993 22.1967ZM38.093 20.5426L37.2625 19.9856L37.261 19.9879L38.093 20.5426ZM39.0227 18.2727V17.2727H38.209L38.0436 18.0695L39.0227 18.2727ZM42.017 18.2727L43.0015 18.4483L43.2112 17.2727H42.017V18.2727ZM40.7855 21.6655L39.9268 21.153L39.9268 21.153L40.7855 21.6655ZM38.5639 24.2131L39.1799 25.0009L39.1843 24.9974L38.5639 24.2131ZM35.5817 25.7947L35.2696 24.8447L35.2675 24.8454L35.5817 25.7947ZM26.4418 24.7926L25.9103 25.6397L25.9103 25.6397L26.4418 24.7926ZM22.5661 20.3977L23.462 19.9536L23.462 19.9536L22.5661 20.3977ZM22.5661 6.875L21.6701 6.43083L22.5661 6.875ZM35.5817 1.47798L35.2675 2.42736L35.2696 2.42804L35.5817 1.47798ZM38.5639 3.07173L37.9436 3.85608L37.948 3.85954L38.5639 3.07173ZM40.7855 5.60724L39.9268 6.1197L39.9286 6.12276L40.7855 5.60724ZM42.017 8H39.0227V10H42.017V8ZM40.0022 8.79861C39.8017 7.82329 39.4451 6.94121 38.9203 6.16836L37.2657 7.29186C37.6264 7.82299 37.8896 8.45417 38.0432 9.20139L40.0022 8.79861ZM38.9251 6.17541C38.4235 5.42299 37.8061 4.78597 37.0756 4.27081L35.923 5.90533C36.4481 6.27559 36.8933 6.73326 37.261 7.28481L38.9251 6.17541ZM37.0875 4.27933C36.3732 3.75988 35.5821 3.37223 34.7201 3.11548L34.1492 5.03225C34.8005 5.22625 35.3858 5.51474 35.9111 5.8968L37.0875 4.27933ZM34.7201 3.11548C33.8672 2.86141 32.982 2.73579 32.0682 2.73579V4.73579C32.7964 4.73579 33.4889 4.83555 34.1492 5.03225L34.7201 3.11548ZM32.0682 2.73579C30.3932 2.73579 28.8523 3.16181 27.4708 4.02179L28.5278 5.71968C29.5772 5.06641 30.7489 4.73579 32.0682 4.73579V2.73579ZM27.4683 4.02338C26.0795 4.89366 25.0001 6.1621 24.2143 7.77784L26.0129 8.65256C26.6599 7.32227 27.5043 6.36108 28.5303 5.7181L27.4683 4.02338ZM24.2124 7.78183C23.4222 9.42521 23.0511 11.3898 23.0511 13.6364H25.0511C25.0511 11.6007 25.3884 9.95121 26.0149 8.64857L24.2124 7.78183ZM23.0511 13.6364C23.0511 15.8829 23.4222 17.8475 24.2124 19.4909L26.0149 18.6242C25.3884 17.3215 25.0511 15.672 25.0511 13.6364H23.0511ZM24.2143 19.4949C25.0001 21.1106 26.0795 22.3791 27.4683 23.2494L28.5303 21.5546C27.5043 20.9116 26.6599 19.9505 26.0129 18.6202L24.2143 19.4949ZM27.4708 23.2509C28.8523 24.1109 30.3932 24.5369 32.0682 24.5369V22.5369C30.7489 22.5369 29.5772 22.2063 28.5278 21.553L27.4708 23.2509ZM32.0682 24.5369C32.982 24.5369 33.8672 24.4113 34.7201 24.1572L34.1492 22.2405C33.4889 22.4372 32.7964 22.5369 32.0682 22.5369V24.5369ZM34.7201 24.1572C35.5788 23.9015 36.3676 23.5197 37.0805 23.0105L35.9181 21.383C35.3914 21.7591 34.8038 22.0455 34.1492 22.2405L34.7201 24.1572ZM37.0825 23.0091C37.8095 22.4871 38.4246 21.848 38.9251 21.0973L37.261 19.9879C36.8922 20.5412 36.4448 21.0048 35.9161 21.3844L37.0825 23.0091ZM38.9235 21.0996C39.4448 20.3225 39.8011 19.4434 40.0019 18.4759L38.0436 18.0695C37.8902 18.8085 37.6267 19.4427 37.2626 19.9856L38.9235 21.0996ZM39.0227 19.2727H42.017V17.2727H39.0227V19.2727ZM41.0326 18.0972C40.8262 19.2543 40.4544 20.269 39.9268 21.153L41.6442 22.1779C42.3079 21.0658 42.7571 19.8186 43.0015 18.4483L41.0326 18.0972ZM39.9268 21.153C39.3916 22.0499 38.7308 22.8061 37.9436 23.4287L39.1843 24.9974C40.1678 24.2195 40.9882 23.2773 41.6442 22.1779L39.9268 21.153ZM37.948 23.4253C37.1567 24.0439 36.2661 24.5174 35.2696 24.8447L35.8937 26.7448C37.1027 26.3477 38.2003 25.7667 39.1798 25.0009L37.948 23.4253ZM35.2675 24.8454C34.2822 25.1714 33.2178 25.3381 32.0682 25.3381V27.3381C33.4138 27.3381 34.6918 27.1425 35.8958 26.7441L35.2675 24.8454ZM32.0682 25.3381C30.1301 25.3381 28.4421 24.8672 26.9733 23.9455L25.9103 25.6397C27.7255 26.7787 29.7884 27.3381 32.0682 27.3381V25.3381ZM26.9733 23.9455C25.502 23.0224 24.3297 21.7039 23.462 19.9536L21.6701 20.8419C22.6859 22.8908 24.0974 24.5022 25.9103 25.6397L26.9733 23.9455ZM23.462 19.9536C22.6026 18.2201 22.1534 16.125 22.1534 13.6364H20.1534C20.1534 16.3636 20.646 18.7761 21.6701 20.8419L23.462 19.9536ZM22.1534 13.6364C22.1534 11.1477 22.6026 9.05262 23.462 7.31917L21.6701 6.43083C20.646 8.49662 20.1534 10.9091 20.1534 13.6364H22.1534ZM23.462 7.31917C24.3297 5.56887 25.502 4.25029 26.9733 3.32718L25.9103 1.63305C24.0974 2.77054 22.6859 4.38189 21.6701 6.43083L23.462 7.31917ZM26.9733 3.32718C28.4421 2.40555 30.1301 1.93466 32.0682 1.93466V-0.0653418C29.7884 -0.0653418 27.7255 0.494072 25.9103 1.63305L26.9733 3.32718ZM32.0682 1.93466C33.2178 1.93466 34.2822 2.10132 35.2675 2.42736L35.8958 0.528603C34.6918 0.130216 33.4138 -0.0653418 32.0682 -0.0653418V1.93466ZM35.2696 2.42804C36.2639 2.75462 37.153 3.23078 37.9436 3.85607L39.1843 2.2874C38.204 1.51212 37.105 0.925776 35.8937 0.527921L35.2696 2.42804ZM37.948 3.85954C38.7329 4.47316 39.3922 5.22389 39.9268 6.1197L41.6442 5.09479C40.9875 3.99439 40.1658 3.05477 39.1798 2.28393L37.948 3.85954ZM39.9286 6.12276C40.4542 6.99629 40.8259 8.00911 41.0324 9.1745L43.0017 8.8255C42.7575 7.44733 42.3081 6.19832 41.6424 5.09172L39.9286 6.12276ZM49.5964 25.1911L49.0606 26.0354L49.063 26.0369L49.5964 25.1911ZM46.6504 21.8466L45.752 22.2857L45.754 22.2898L46.6504 21.8466ZM46.6504 11.7649L45.753 11.3237L45.751 11.3278L46.6504 11.7649ZM49.5964 8.40838L49.063 7.5625L49.0606 7.56405L49.5964 8.40838ZM58.3983 8.40838L57.8624 9.25271L57.8649 9.25425L58.3983 8.40838ZM61.3443 11.7649L60.4449 12.2021L60.4469 12.2061L61.3443 11.7649ZM61.3443 21.8466L60.4478 21.4034L60.4459 21.4075L61.3443 21.8466ZM58.3983 25.1911L57.8649 24.3452L57.8624 24.3467L58.3983 25.1911ZM57.1426 22.8487L56.5207 22.0656L56.5207 22.0656L57.1426 22.8487ZM58.9657 20.277L59.9032 20.625L59.9032 20.625L58.9657 20.277ZM58.9657 13.3587L59.9041 13.013L59.9041 13.013L58.9657 13.3587ZM57.1426 10.7628L57.7691 9.98341L57.7691 9.98341L57.1426 10.7628ZM50.8642 10.7628L50.2376 9.98341L50.2376 9.98341L50.8642 10.7628ZM49.041 13.3587L48.1027 13.013L48.1027 13.013L49.041 13.3587ZM49.041 20.277L48.1035 20.625L48.1035 20.625L49.041 20.277ZM50.8642 22.8487L51.4861 22.0656L51.4861 22.0656L50.8642 22.8487ZM54.0034 25.3864C52.4944 25.3864 51.2151 25.0295 50.1298 24.3452L49.063 26.0369C50.5052 26.9463 52.1638 27.3864 54.0034 27.3864V25.3864ZM50.1322 24.3467C49.0428 23.6554 48.1803 22.6847 47.5468 21.4034L45.754 22.2898C46.5372 23.874 47.6387 25.133 49.0606 26.0354L50.1322 24.3467ZM47.5488 21.4075C46.9275 20.1363 46.6 18.6176 46.6 16.8239H44.6C44.6 18.8615 44.9727 20.6914 45.752 22.2857L47.5488 21.4075ZM46.6 16.8239C46.6 15.0127 46.928 13.4815 47.5498 12.2021L45.751 11.3278C44.9723 12.93 44.6 14.7713 44.6 16.8239H46.6ZM47.5478 12.2061C48.1817 10.9167 49.0442 9.94319 50.1322 9.25271L49.0606 7.56405C47.6372 8.46732 46.5358 9.73146 45.753 11.3237L47.5478 12.2061ZM50.1298 9.25425C51.2151 8.56989 52.4944 8.21307 54.0034 8.21307V6.21307C52.1638 6.21307 50.5052 6.65312 49.063 7.56251L50.1298 9.25425ZM54.0034 8.21307C55.5124 8.21307 56.7865 8.56992 57.8624 9.25271L58.9341 7.56405C57.4986 6.65309 55.8428 6.21307 54.0034 6.21307V8.21307ZM57.8649 9.25425C58.9594 9.94444 59.82 10.9163 60.4449 12.2021L62.2437 11.3278C61.468 9.73188 60.3646 8.46607 58.9316 7.56251L57.8649 9.25425ZM60.4469 12.2061C61.0754 13.4845 61.4068 15.0143 61.4068 16.8239H63.4068C63.4068 14.7698 63.0299 12.9269 62.2417 11.3237L60.4469 12.2061ZM61.4068 16.8239C61.4068 18.6161 61.0758 20.1332 60.4479 21.4034L62.2407 22.2898C63.0294 20.6945 63.4068 18.8631 63.4068 16.8239H61.4068ZM60.4459 21.4075C59.8214 22.6851 58.9608 23.6541 57.8649 24.3452L58.9316 26.0369C60.3632 25.1343 61.4666 23.8736 62.2427 22.2857L60.4459 21.4075ZM57.8624 24.3467C56.7865 25.0295 55.5124 25.3864 54.0034 25.3864V27.3864C55.8428 27.3864 57.4986 26.9463 58.9341 26.0354L57.8624 24.3467ZM54.0034 24.8267C55.4513 24.8267 56.7313 24.4523 57.7645 23.6318L56.5207 22.0656C55.9119 22.5491 55.099 22.8267 54.0034 22.8267V24.8267ZM57.7645 23.6318C58.74 22.8572 59.4506 21.8442 59.9032 20.625L58.0282 19.929C57.692 20.8347 57.1872 21.5363 56.5207 22.0656L57.7645 23.6318ZM59.9032 20.625C60.3427 19.4411 60.5574 18.1711 60.5574 16.8239H58.5574C58.5574 17.9558 58.3776 18.9878 58.0282 19.929L59.9032 20.625ZM60.5574 16.8239C60.5574 15.4765 60.3427 14.2034 59.9041 13.013L58.0274 13.7044C58.3776 14.655 58.5574 15.692 58.5574 16.8239H60.5574ZM59.9041 13.013C59.4524 11.7869 58.7432 10.7664 57.7691 9.98341L56.516 11.5422C57.184 12.0792 57.6903 12.7893 58.0274 13.7044L59.9041 13.013ZM57.7691 9.98341C56.7358 9.15269 55.4541 8.77273 54.0034 8.77273V10.7727C55.0962 10.7727 55.9073 11.0528 56.516 11.5422L57.7691 9.98341ZM54.0034 8.77273C52.5526 8.77273 51.2709 9.15269 50.2376 9.98341L51.4907 11.5422C52.0994 11.0528 52.9106 10.7727 54.0034 10.7727V8.77273ZM50.2376 9.98341C49.2636 10.7664 48.5544 11.7869 48.1027 13.013L49.9794 13.7044C50.3165 12.7893 50.8227 12.0792 51.4907 11.5422L50.2376 9.98341ZM48.1027 13.013C47.6641 14.2034 47.4494 15.4765 47.4494 16.8239H49.4494C49.4494 15.692 49.6291 14.655 49.9794 13.7044L48.1027 13.013ZM47.4494 16.8239C47.4494 18.1711 47.6641 19.4411 48.1035 20.625L49.9785 19.929C49.6291 18.9878 49.4494 17.9558 49.4494 16.8239H47.4494ZM48.1035 20.625C48.5561 21.8442 49.2668 22.8572 50.2423 23.6318L51.4861 22.0656C50.8195 21.5363 50.3147 20.8347 49.9785 19.929L48.1035 20.625ZM50.2423 23.6318C51.2755 24.4523 52.5554 24.8267 54.0034 24.8267V22.8267C52.9078 22.8267 52.0949 22.5491 51.4861 22.0656L50.2423 23.6318ZM69.6058 26V27H70.6058V26H69.6058ZM66.7564 26H65.7564V27H66.7564V26ZM66.7564 7.45454V6.45454H65.7564V7.45454H66.7564ZM69.5092 7.45454H70.5092V6.45454H69.5092V7.45454ZM69.5092 10.3523H68.5092V11.3523H69.5092V10.3523ZM69.7507 10.3523V11.3523H70.3905L70.6587 10.7713L69.7507 10.3523ZM71.7308 8.08239L72.2731 8.92259L72.2785 8.91909L71.7308 8.08239ZM78.456 7.98579L77.9761 8.86314L77.9819 8.86627L78.456 7.98579ZM80.6534 10.304L79.7604 10.754L79.7618 10.7568L80.6534 10.304ZM81.4382 26V27H82.4382V26H81.4382ZM78.5888 26H77.5888V27H78.5888V26ZM77.4538 11.0043L76.7185 11.6819L76.7218 11.6855L77.4538 11.0043ZM71.8999 10.3643L71.4176 9.48833L71.4134 9.49066L71.8999 10.3643ZM70.2216 12.0909L69.3426 11.614L69.3426 11.614L70.2216 12.0909ZM68.6058 14.8438V26H70.6058V14.8438H68.6058ZM69.6058 25H66.7564V27H69.6058V25ZM67.7564 26V7.45454H65.7564V26H67.7564ZM66.7564 8.45454H69.5092V6.45454H66.7564V8.45454ZM68.5092 7.45454V10.3523H70.5092V7.45454H68.5092ZM69.5092 11.3523H69.7507V9.35227H69.5092V11.3523ZM70.6587 10.7713C71.0125 10.0047 71.5444 9.39295 72.2731 8.92257L71.1885 7.2422C70.1465 7.91481 69.3582 8.81635 68.8428 9.93321L70.6587 10.7713ZM72.2785 8.91909C72.9562 8.4755 73.8921 8.21307 75.1598 8.21307V6.21307C73.6264 6.21307 72.2763 6.53018 71.1832 7.24569L72.2785 8.91909ZM75.1598 8.21307C76.2764 8.21307 77.2047 8.44115 77.9761 8.86312L78.9359 7.10847C77.8238 6.50014 76.5546 6.21307 75.1598 6.21307V8.21307ZM77.9819 8.86627C78.7273 9.26767 79.321 9.88191 79.7604 10.754L81.5464 9.854C80.9395 8.64934 80.0681 7.71812 78.9301 7.10532L77.9819 8.86627ZM79.7618 10.7568C80.1926 11.6051 80.4382 12.7411 80.4382 14.2159H82.4382C82.4382 12.5355 82.1606 11.0635 81.545 9.8512L79.7618 10.7568ZM80.4382 14.2159V26H82.4382V14.2159H80.4382ZM81.4382 25H78.5888V27H81.4382V25ZM79.5888 26V14.4091H77.5888V26H79.5888ZM79.5888 14.4091C79.5888 12.7804 79.1629 11.3728 78.1859 10.323L76.7218 11.6855C77.258 12.2616 77.5888 13.124 77.5888 14.4091H79.5888ZM78.1892 10.3266C77.2086 9.26257 75.8827 8.77273 74.3388 8.77273V10.7727C75.435 10.7727 76.1858 11.1039 76.7185 11.6819L78.1892 10.3266ZM74.3388 8.77273C73.2799 8.77273 72.2977 9.00376 71.4176 9.48834L72.3822 11.2404C72.9348 10.9361 73.5786 10.7727 74.3388 10.7727V8.77273ZM71.4134 9.49066C70.5288 9.9832 69.8378 10.7013 69.3426 11.614L71.1006 12.5678C71.4264 11.9672 71.8542 11.5343 72.3863 11.238L71.4134 9.49066ZM69.3426 11.614C68.835 12.5496 68.6058 13.64 68.6058 14.8438H70.6058C70.6058 13.8903 70.7871 13.1455 71.1006 12.5678L69.3426 11.614ZM94.7104 7.45454H95.7104V6.45454H94.7104V7.45454ZM94.7104 9.86932V10.8693H95.7104V9.86932H94.7104ZM85.0996 9.86932H84.0996V10.8693H85.0996V9.86932ZM85.0996 7.45454V6.45454H84.0996V7.45454H85.0996ZM87.9007 3.01136V2.01136H86.9007V3.01136H87.9007ZM90.7502 3.01136H91.7502V2.01136H90.7502V3.01136ZM91.1003 22.4986L90.2353 23.0003L90.2413 23.0106L90.2475 23.0207L91.1003 22.4986ZM92.0179 23.2955L91.6713 24.2334L91.6834 24.2379L91.6957 24.2421L92.0179 23.2955ZM93.986 23.4403L94.144 24.4278L94.1631 24.4247L94.1821 24.4209L93.986 23.4403ZM94.4689 23.3438L95.4442 23.1229L95.2289 22.1719L94.2728 22.3632L94.4689 23.3438ZM95.0485 25.9034L95.3996 26.8397L96.2164 26.5334L96.0238 25.6826L95.0485 25.9034ZM94.2395 26.1207L94.0347 25.1419L94.0238 25.1442L94.013 25.1467L94.2395 26.1207ZM90.557 25.7223L90.1446 26.6333L90.1482 26.6349L90.557 25.7223ZM88.6493 24.1406L87.8318 24.7166L87.8362 24.7227L88.6493 24.1406ZM93.7104 7.45454V9.86932H95.7104V7.45454H93.7104ZM94.7104 8.86932H85.0996V10.8693H94.7104V8.86932ZM86.0996 9.86932V7.45454H84.0996V9.86932H86.0996ZM85.0996 8.45454H94.7104V6.45454H85.0996V8.45454ZM87.9007 4.01136H90.7502V2.01136H87.9007V4.01136ZM89.7502 3.01136V20.6875H91.7502V3.01136H89.7502ZM89.7502 20.6875C89.7502 21.5563 89.8704 22.3712 90.2353 23.0003L91.9654 21.9969C91.8634 21.8211 91.7502 21.4285 91.7502 20.6875H89.7502ZM90.2475 23.0207C90.5852 23.5724 91.0556 24.0059 91.6713 24.2334L92.3646 22.3575C92.2398 22.3113 92.0984 22.2136 91.9532 21.9764L90.2475 23.0207ZM91.6957 24.2421C92.1826 24.4079 92.6903 24.4886 93.2132 24.4886V22.4886C92.8991 22.4886 92.6099 22.4406 92.3402 22.3488L91.6957 24.2421ZM93.2132 24.4886C93.5551 24.4886 93.8705 24.4715 94.144 24.4278L93.828 22.4529C93.699 22.4735 93.4993 22.4886 93.2132 22.4886V24.4886ZM94.1821 24.4209C94.3833 24.3807 94.5443 24.3485 94.665 24.3243L94.2728 22.3632C94.1521 22.3873 93.9911 22.4195 93.7899 22.4598L94.1821 24.4209ZM93.4936 23.5646L94.0732 26.1242L96.0238 25.6826L95.4442 23.1229L93.4936 23.5646ZM94.6974 24.9671C94.5736 25.0135 94.3608 25.0737 94.0347 25.1419L94.4444 27.0995C94.8105 27.0229 95.137 26.9382 95.3996 26.8397L94.6974 24.9671ZM94.013 25.1467C93.768 25.2037 93.412 25.2415 92.9235 25.2415V27.2415C93.4974 27.2415 94.0189 27.1987 94.466 27.0947L94.013 25.1467ZM92.9235 25.2415C92.2667 25.2415 91.6167 25.1012 90.9658 24.8097L90.1482 26.6349C91.0427 27.0356 91.9704 27.2415 92.9235 27.2415V25.2415ZM90.9694 24.8113C90.3711 24.5405 89.8712 24.1295 89.4624 23.5585L87.8362 24.7227C88.4416 25.5684 89.2136 26.2119 90.1446 26.6333L90.9694 24.8113ZM89.4668 23.5647C89.1128 23.0623 88.9007 22.3836 88.9007 21.4602H86.9007C86.9007 22.6941 87.1877 23.8023 87.8318 24.7166L89.4668 23.5647ZM88.9007 21.4602V3.01136H86.9007V21.4602H88.9007ZM98.9966 26H97.9966V27H98.9966V26ZM98.9966 7.45454V6.45454H97.9966V7.45454H98.9966ZM101.846 7.45454H102.846V6.45454H101.846V7.45454ZM101.846 26V27H102.846V26H101.846ZM99.0087 3.79616L98.3164 4.51788L98.3238 4.52479L99.0087 3.79616ZM99.0087 1.06747L98.3238 0.338805L98.3165 0.34579L99.0087 1.06747ZM101.87 1.06747L101.178 1.78919L101.185 1.7961L101.87 1.06747ZM101.87 3.79616L101.185 3.0675L101.178 3.07448L101.87 3.79616ZM99.9966 26V7.45454H97.9966V26H99.9966ZM98.9966 8.45454H101.846V6.45454H98.9966V8.45454ZM100.846 7.45454V26H102.846V7.45454H100.846ZM101.846 25H98.9966V27H101.846V25ZM100.445 3.36364C100.143 3.36364 99.9095 3.27046 99.6936 3.06754L98.3238 4.52479C98.9128 5.0785 99.6371 5.36364 100.445 5.36364V3.36364ZM99.7009 3.07448C99.4968 2.87865 99.4171 2.68193 99.4171 2.43182H97.4171C97.4171 3.24421 97.7318 3.95705 98.3165 4.51785L99.7009 3.07448ZM99.4171 2.43182C99.4171 2.18171 99.4968 1.98498 99.7009 1.78915L98.3165 0.34579C97.7318 0.906591 97.4171 1.61943 97.4171 2.43182H99.4171ZM99.6936 1.7961C99.9095 1.59317 100.143 1.5 100.445 1.5V-0.5C99.6371 -0.5 98.9128 -0.214861 98.3238 0.338842L99.6936 1.7961ZM100.445 1.5C100.748 1.5 100.973 1.59265 101.178 1.78915L102.562 0.345789C101.978 -0.214333 101.254 -0.5 100.445 -0.5V1.5ZM101.185 1.7961C101.396 1.99388 101.474 2.18863 101.474 2.43182H103.474C103.474 1.61251 103.15 0.897695 102.555 0.338844L101.185 1.7961ZM101.474 2.43182C101.474 2.675 101.396 2.86976 101.185 3.06754L102.555 4.52479C103.15 3.96594 103.474 3.25113 103.474 2.43182H101.474ZM101.178 3.07448C100.973 3.27099 100.748 3.36364 100.445 3.36364V5.36364C101.254 5.36364 101.978 5.07797 102.562 4.51784L101.178 3.07448ZM109.914 26V27H110.914V26H109.914ZM107.065 26H106.065V27H107.065V26ZM107.065 7.45454V6.45454H106.065V7.45454H107.065ZM109.818 7.45454H110.818V6.45454H109.818V7.45454ZM109.818 10.3523H108.818V11.3523H109.818V10.3523ZM110.059 10.3523V11.3523H110.699L110.967 10.7713L110.059 10.3523ZM112.039 8.08239L112.582 8.92259L112.587 8.91909L112.039 8.08239ZM118.765 7.98579L118.285 8.86314L118.29 8.86627L118.765 7.98579ZM120.962 10.304L120.069 10.754L120.07 10.7568L120.962 10.304ZM121.747 26V27H122.747V26H121.747ZM118.897 26H117.897V27H118.897V26ZM117.762 11.0043L117.027 11.6819L117.03 11.6855L117.762 11.0043ZM112.208 10.3643L111.726 9.48833L111.722 9.49066L112.208 10.3643ZM110.53 12.0909L109.651 11.614L109.651 11.614L110.53 12.0909ZM108.914 14.8438V26H110.914V14.8438H108.914ZM109.914 25H107.065V27H109.914V25ZM108.065 26V7.45454H106.065V26H108.065ZM107.065 8.45454H109.818V6.45454H107.065V8.45454ZM108.818 7.45454V10.3523H110.818V7.45454H108.818ZM109.818 11.3523H110.059V9.35227H109.818V11.3523ZM110.967 10.7713C111.321 10.0047 111.853 9.39295 112.582 8.92257L111.497 7.2422C110.455 7.91481 109.667 8.81635 109.151 9.93321L110.967 10.7713ZM112.587 8.91909C113.265 8.4755 114.201 8.21307 115.468 8.21307V6.21307C113.935 6.21307 112.585 6.53018 111.492 7.24569L112.587 8.91909ZM115.468 8.21307C116.585 8.21307 117.513 8.44115 118.285 8.86312L119.244 7.10847C118.132 6.50014 116.863 6.21307 115.468 6.21307V8.21307ZM118.29 8.86627C119.036 9.26767 119.63 9.88191 120.069 10.754L121.855 9.854C121.248 8.64934 120.377 7.71812 119.239 7.10532L118.29 8.86627ZM120.07 10.7568C120.501 11.6051 120.747 12.7411 120.747 14.2159H122.747C122.747 12.5355 122.469 11.0635 121.854 9.8512L120.07 10.7568ZM120.747 14.2159V26H122.747V14.2159H120.747ZM121.747 25H118.897V27H121.747V25ZM119.897 26V14.4091H117.897V26H119.897ZM119.897 14.4091C119.897 12.7804 119.472 11.3728 118.494 10.323L117.03 11.6855C117.567 12.2616 117.897 13.124 117.897 14.4091H119.897ZM118.498 10.3266C117.517 9.26257 116.191 8.77273 114.647 8.77273V10.7727C115.744 10.7727 116.494 11.1039 117.027 11.6819L118.498 10.3266ZM114.647 8.77273C113.588 8.77273 112.606 9.00376 111.726 9.48834L112.691 11.2404C113.243 10.9361 113.887 10.7727 114.647 10.7727V8.77273ZM111.722 9.49066C110.837 9.9832 110.146 10.7013 109.651 11.614L111.409 12.5678C111.735 11.9672 112.163 11.5343 112.695 11.238L111.722 9.49066ZM109.651 11.614C109.144 12.5496 108.914 13.64 108.914 14.8438H110.914C110.914 13.8903 111.096 13.1455 111.409 12.5678L109.651 11.614ZM138.641 7.45454V6.45454H137.641V7.45454H138.641ZM141.491 7.45454H142.491V6.45454H141.491V7.45454ZM141.491 26V27H142.491V26H141.491ZM138.641 26H137.641V27H138.641V26ZM138.641 22.8608H139.641V21.8608H138.641V22.8608ZM138.448 22.8608V21.8608H137.808L137.54 22.4417L138.448 22.8608ZM136.42 25.2635L136.999 26.0787L137.003 26.0753L136.42 25.2635ZM129.851 25.4808L129.355 26.3491L129.361 26.3524L129.851 25.4808ZM127.726 23.1626L126.831 23.6071L126.832 23.6099L127.726 23.1626ZM126.954 7.45454V6.45454H125.954V7.45454H126.954ZM129.803 7.45454H130.803V6.45454H129.803V7.45454ZM130.938 22.2812L130.209 22.9662L130.213 22.97L130.938 22.2812ZM136.021 22.9453L135.582 22.047L135.578 22.0489L136.021 22.9453ZM137.881 21.2791L137.053 20.7183L137.048 20.7244L137.881 21.2791ZM139.641 18.4176V7.45454H137.641V18.4176H139.641ZM138.641 8.45454H141.491V6.45454H138.641V8.45454ZM140.491 7.45454V26H142.491V7.45454H140.491ZM141.491 25H138.641V27H141.491V25ZM139.641 26V22.8608H137.641V26H139.641ZM138.641 21.8608H138.448V23.8608H138.641V21.8608ZM137.54 22.4417C137.184 23.213 136.626 23.8831 135.836 24.4517L137.003 26.0753C138.048 25.3238 138.843 24.3921 139.356 23.2799L137.54 22.4417ZM135.84 24.4483C135.129 24.9535 134.187 25.2415 132.942 25.2415V27.2415C134.499 27.2415 135.875 26.8775 136.999 26.0787L135.84 24.4483ZM132.942 25.2415C131.934 25.2415 131.076 25.0224 130.342 24.6092L129.361 26.3524C130.43 26.9535 131.633 27.2415 132.942 27.2415V25.2415ZM130.348 24.6126C129.636 24.206 129.058 23.5892 128.621 22.7154L126.832 23.6099C127.425 24.7967 128.264 25.7254 129.355 26.3491L130.348 24.6126ZM128.622 22.7182C128.196 21.8586 127.954 20.7149 127.954 19.2386H125.954C125.954 20.9177 126.227 22.39 126.831 23.6071L128.622 22.7182ZM127.954 19.2386V7.45454H125.954V19.2386H127.954ZM126.954 8.45454H129.803V6.45454H126.954V8.45454ZM128.803 7.45454V19.0455H130.803V7.45454H128.803ZM128.803 19.0455C128.803 20.5922 129.241 21.9362 130.209 22.9662L131.667 21.5963C131.122 21.0165 130.803 20.2033 130.803 19.0455H128.803ZM130.213 22.97C131.18 23.9878 132.423 24.4886 133.86 24.4886V22.4886C132.931 22.4886 132.225 22.1845 131.663 21.5925L130.213 22.97ZM133.86 24.4886C134.744 24.4886 135.615 24.2616 136.464 23.8417L135.578 22.0489C134.962 22.3535 134.392 22.4886 133.86 22.4886V24.4886ZM136.461 23.8436C137.374 23.3966 138.125 22.7158 138.713 21.8338L137.048 20.7244C136.638 21.3396 136.149 21.7696 135.582 22.047L136.461 23.8436ZM138.708 21.84C139.355 20.8848 139.641 19.7206 139.641 18.4176H137.641C137.641 19.4329 137.42 20.1763 137.053 20.7183L138.708 21.84ZM149.861 25.2031L149.335 26.0535L149.341 26.0573L149.861 25.2031ZM146.879 21.8707L145.978 22.3058L145.981 22.3119L146.879 21.8707ZM146.879 11.8494L145.977 11.4162L145.976 11.4183L146.879 11.8494ZM149.8 8.4446L150.346 9.28243L150.348 9.28157L149.8 8.4446ZM157.057 7.69602L157.38 6.74979L157.38 6.74979L157.057 7.69602ZM159.629 9.26562L158.945 9.99517L158.949 9.99896L159.629 9.26562ZM161.476 12.1151L162.408 11.7535L162.408 11.7535L161.476 12.1151ZM162.164 17.6932V18.6932H163.164V17.6932H162.164ZM147.869 17.6932H146.869V18.6932H147.869V17.6932ZM147.869 15.2301V14.2301H146.869V15.2301H147.869ZM159.266 15.2301V16.2301H160.266V15.2301H159.266ZM158.638 12.429L157.744 12.8762L157.748 12.8832L158.638 12.429ZM156.876 10.4851L156.344 11.3321L156.348 11.3346L156.876 10.4851ZM151.249 10.6179L151.81 11.4462L151.811 11.445L151.249 10.6179ZM149.354 12.7912L148.458 12.3472L148.458 12.3472L149.354 12.7912ZM149.414 20.8686L148.518 21.3129L148.523 21.3218L149.414 20.8686ZM151.455 23.0781L150.951 23.9419L150.957 23.9454L151.455 23.0781ZM156.513 23.5128L156.841 24.4576L156.848 24.4551L156.513 23.5128ZM158.095 22.5469L158.789 23.267L158.796 23.2604L158.095 22.5469ZM159.121 20.929L159.392 19.9662L158.508 19.718L158.185 20.5779L159.121 20.929ZM161.874 21.7017L162.829 21.9981L163.134 21.0166L162.145 20.7389L161.874 21.7017ZM160.413 24.1648L161.129 24.8636L161.133 24.8595L160.413 24.1648ZM157.878 25.8068L158.236 26.7404L158.243 26.7378L157.878 25.8068ZM154.485 25.3864C152.849 25.3864 151.494 25.0266 150.381 24.3489L149.341 26.0573C150.819 26.9573 152.548 27.3864 154.485 27.3864V25.3864ZM150.387 24.3527C149.267 23.6596 148.398 22.6943 147.776 21.4296L145.981 22.3119C146.76 23.8966 147.879 25.1529 149.335 26.0535L150.387 24.3527ZM147.779 21.4357C147.164 20.1624 146.84 18.65 146.84 16.8722H144.84C144.84 18.8936 145.209 20.7135 145.978 22.3058L147.779 21.4357ZM146.84 16.8722C146.84 15.0947 147.164 13.5723 147.781 12.2805L145.976 11.4183C145.209 13.0243 144.84 14.8504 144.84 16.8722H146.84ZM147.78 12.2826C148.408 10.976 149.265 9.98707 150.346 9.28243L149.254 7.60678C147.841 8.52808 146.75 9.80907 145.977 11.4162L147.78 12.2826ZM150.348 9.28157C151.422 8.57901 152.692 8.21307 154.195 8.21307V6.21307C152.35 6.21307 150.69 6.66815 149.253 7.60763L150.348 9.28157ZM154.195 8.21307C155.048 8.21307 155.892 8.35479 156.733 8.64225L157.38 6.74979C156.338 6.39332 155.275 6.21307 154.195 6.21307V8.21307ZM156.733 8.64225C157.532 8.91545 158.269 9.36135 158.945 9.99516L160.312 8.53609C159.443 7.72103 158.465 7.12053 157.38 6.74979L156.733 8.64225ZM158.949 9.99896C159.59 10.5932 160.128 11.4063 160.543 12.4766L162.408 11.7535C161.906 10.4573 161.213 9.37081 160.308 8.53229L158.949 9.99896ZM160.543 12.4766C160.945 13.5109 161.164 14.8368 161.164 16.4858H163.164C163.164 14.6736 162.925 13.0856 162.408 11.7535L160.543 12.4766ZM161.164 16.4858V17.6932H163.164V16.4858H161.164ZM162.164 16.6932H147.869V18.6932H162.164V16.6932ZM148.869 17.6932V15.2301H146.869V17.6932H148.869ZM147.869 16.2301H159.266V14.2301H147.869V16.2301ZM160.266 15.2301C160.266 14.0474 160.029 12.9545 159.529 11.9748L157.748 12.8832C158.085 13.5455 158.266 14.32 158.266 15.2301H160.266ZM159.533 11.9818C159.041 10.9987 158.328 10.2101 157.403 9.63558L156.348 11.3346C156.952 11.7099 157.415 12.2172 157.744 12.8762L159.533 11.9818ZM157.407 9.6381C156.468 9.04864 155.384 8.77273 154.195 8.77273V10.7727C155.067 10.7727 155.77 10.9717 156.344 11.3321L157.407 9.6381ZM154.195 8.77273C152.887 8.77273 151.703 9.10021 150.687 9.79082L151.811 11.445C152.453 11.0087 153.233 10.7727 154.195 10.7727V8.77273ZM150.689 9.78961C149.724 10.4425 148.977 11.2997 148.458 12.3472L150.25 13.2352C150.616 12.4957 151.133 11.9041 151.81 11.4462L150.689 9.78961ZM148.458 12.3472C147.945 13.3822 147.69 14.4925 147.69 15.6648H149.69C149.69 14.7925 149.877 13.9871 150.25 13.2352L148.458 12.3472ZM147.69 15.6648V17.3068H149.69V15.6648H147.69ZM147.69 17.3068C147.69 18.8186 147.95 20.1669 148.518 21.3129L150.31 20.4244C149.912 19.6224 149.69 18.5962 149.69 17.3068H147.69ZM148.523 21.3218C149.094 22.4452 149.903 23.3305 150.951 23.9419L151.958 22.2143C151.268 21.8115 150.716 21.2238 150.305 20.4155L148.523 21.3218ZM150.957 23.9454C151.999 24.5436 153.186 24.8267 154.485 24.8267V22.8267C153.482 22.8267 152.649 22.6107 151.952 22.2109L150.957 23.9454ZM154.485 24.8267C155.326 24.8267 156.116 24.7091 156.841 24.4576L156.186 22.5679C155.704 22.735 155.141 22.8267 154.485 22.8267V24.8267ZM156.848 24.4551C157.587 24.1928 158.238 23.7978 158.789 23.267L157.401 21.8268C157.067 22.1491 156.664 22.3981 156.179 22.5705L156.848 24.4551ZM158.796 23.2604C159.353 22.713 159.771 22.0457 160.058 21.2801L158.185 20.5779C157.989 21.1002 157.722 21.5114 157.395 21.8333L158.796 23.2604ZM158.851 21.8918L161.604 22.6645L162.145 20.7389L159.392 19.9662L158.851 21.8918ZM160.919 21.4053C160.676 22.1885 160.27 22.8734 159.694 23.47L161.133 24.8595C161.925 24.0395 162.493 23.0823 162.829 21.9981L160.919 21.4053ZM159.698 23.4659C159.123 24.0548 158.401 24.5277 157.513 24.8758L158.243 26.7378C159.367 26.2971 160.336 25.6753 161.129 24.8636L159.698 23.4659ZM157.519 24.8733C156.645 25.2091 155.638 25.3864 154.485 25.3864V27.3864C155.843 27.3864 157.099 27.1773 158.236 26.7404L157.519 24.8733ZM7.4858 67L6.52121 67.2638L6.72252 68H7.4858V67ZM0.724432 42.2727V41.2727H-0.585716L-0.240158 42.5365L0.724432 42.2727ZM3.76705 42.2727L4.73567 42.0242L4.54285 41.2727H3.76705V42.2727ZM8.93466 62.4119L7.96604 62.6605L8.15886 63.4119H8.93466V62.4119ZM9.17614 62.4119V63.4119H9.94834L10.1436 62.6648L9.17614 62.4119ZM14.4403 42.2727V41.2727H13.6681L13.4728 42.0198L14.4403 42.2727ZM17.821 42.2727L18.7885 42.0198L18.5932 41.2727H17.821V42.2727ZM23.0852 62.4119L22.1177 62.6648L22.313 63.4119H23.0852V62.4119ZM23.3267 62.4119V63.4119H24.1025L24.2953 62.6605L23.3267 62.4119ZM28.4943 42.2727V41.2727H27.7185L27.5257 42.0242L28.4943 42.2727ZM31.5369 42.2727L32.5015 42.5365L32.8471 41.2727H31.5369V42.2727ZM24.7756 67V68H25.5388L25.7402 67.2638L24.7756 67ZM21.6847 67L20.7209 67.2669L20.924 68H21.6847V67ZM16.2273 47.2955L17.191 47.0285L16.988 46.2955H16.2273V47.2955ZM16.0341 47.2955V46.2955H15.2734L15.0704 47.0285L16.0341 47.2955ZM10.5767 67V68H11.3374L11.5404 67.2669L10.5767 67ZM8.45039 66.7362L1.68902 42.009L-0.240158 42.5365L6.52121 67.2638L8.45039 66.7362ZM0.724432 43.2727H3.76705V41.2727H0.724432V43.2727ZM2.79842 42.5213L7.96604 62.6605L9.90328 62.1634L4.73567 42.0242L2.79842 42.5213ZM8.93466 63.4119H9.17614V61.4119H8.93466V63.4119ZM10.1436 62.6648L15.4078 42.5256L13.4728 42.0198L8.20864 62.159L10.1436 62.6648ZM14.4403 43.2727H17.821V41.2727H14.4403V43.2727ZM16.8535 42.5256L22.1177 62.6648L24.0527 62.159L18.7885 42.0198L16.8535 42.5256ZM23.0852 63.4119H23.3267V61.4119H23.0852V63.4119ZM24.2953 62.6605L29.4629 42.5213L27.5257 42.0242L22.3581 62.1634L24.2953 62.6605ZM28.4943 43.2727H31.5369V41.2727H28.4943V43.2727ZM30.5723 42.009L23.811 66.7362L25.7402 67.2638L32.5015 42.5365L30.5723 42.009ZM24.7756 66H21.6847V68H24.7756V66ZM22.6484 66.7331L17.191 47.0285L15.2636 47.5624L20.7209 67.2669L22.6484 66.7331ZM16.2273 46.2955H16.0341V48.2955H16.2273V46.2955ZM15.0704 47.0285L9.61298 66.7331L11.5404 67.2669L16.9978 47.5624L15.0704 47.0285ZM10.5767 66H7.4858V68H10.5767V66ZM35.4126 66.7706L34.9868 67.6754L34.9931 67.6783L35.4126 66.7706ZM33.1307 64.8267L32.2962 65.3778L32.2986 65.3814L33.1307 64.8267ZM32.9134 59.152L33.7579 59.6875L33.7608 59.6829L32.9134 59.152ZM36.9098 56.7372L37.1238 57.7141L37.1306 57.7125L36.9098 56.7372ZM39.4815 56.2784L39.354 55.2866L39.3518 55.2869L39.4815 56.2784ZM42.2223 55.9524L42.3252 56.9472L42.3352 56.946L42.2223 55.9524ZM43.7678 55.554L43.2785 54.6818L43.2693 54.6871L43.7678 55.554ZM43.2848 51.7145L42.569 52.4128L42.5734 52.4172L43.2848 51.7145ZM37.1513 51.6179L37.7618 52.4099L37.7618 52.4099L37.1513 51.6179ZM35.5213 53.5256L35.185 54.4673L36.0441 54.7742L36.4283 53.9467L35.5213 53.5256ZM32.8168 52.5597L31.8976 52.1657L31.4785 53.1436L32.4804 53.5014L32.8168 52.5597ZM34.7486 49.9276L35.3636 50.7161L35.3647 50.7152L34.7486 49.9276ZM37.4048 48.5994L37.6569 49.5672L37.6625 49.5657L37.4048 48.5994ZM42.3068 48.4304L42.1225 49.4133L42.1342 49.4154L42.3068 48.4304ZM44.5646 49.2876L44.0501 50.1451L44.0543 50.1476L44.5646 49.2876ZM46.3878 51.2557L45.5117 51.7379L45.5117 51.7379L46.3878 51.2557ZM47.1122 67V68H48.1122V67H47.1122ZM44.2628 67H43.2628V68H44.2628V67ZM44.2628 64.4886H45.2628V63.4886H44.2628V64.4886ZM44.1179 64.4886V63.4886H43.4887L43.2164 64.0559L44.1179 64.4886ZM43.152 65.7805L43.8653 66.4814L43.8653 66.4814L43.152 65.7805ZM41.353 66.9517L40.9579 66.0331L40.9579 66.0331L41.353 66.9517ZM41.8963 64.2109L41.4031 63.341L41.3992 63.3433L41.8963 64.2109ZM43.6591 62.4964L42.792 61.9981L42.7878 62.0057L43.6591 62.4964ZM44.2628 57.679H45.2628V54.9169L43.4946 57.0388L44.2628 57.679ZM43.4659 58.0774L43.7356 59.0405L43.7481 59.0368L43.4659 58.0774ZM42.0653 58.3793L42.2174 59.3677L42.2297 59.3657L42.0653 58.3793ZM40.532 58.5966L40.646 59.5902L40.6599 59.5884L40.532 58.5966ZM39.3366 58.7415L39.466 59.7331L39.4671 59.7329L39.3366 58.7415ZM37.2599 59.2124L37.5726 60.1623L37.5797 60.1599L37.2599 59.2124ZM35.7145 60.1662L34.9802 59.4873L34.9797 59.4879L35.7145 60.1662ZM36.2337 64.1264L35.6644 64.9487L35.6748 64.9557L36.2337 64.1264ZM38.6122 66.4347C37.5653 66.4347 36.6443 66.2382 35.8322 65.8629L34.9931 67.6783C36.0967 68.1884 37.3087 68.4347 38.6122 68.4347V66.4347ZM35.8384 65.8658C35.0381 65.4891 34.4208 64.9591 33.9627 64.272L32.2986 65.3814C32.9675 66.3846 33.8715 67.1505 34.9868 67.6754L35.8384 65.8658ZM33.9651 64.2756C33.528 63.6137 33.2855 62.7834 33.2855 61.7358H31.2855C31.2855 63.103 31.6065 64.3333 32.2962 65.3778L33.9651 64.2756ZM33.2855 61.7358C33.2855 60.7969 33.4712 60.1395 33.7579 59.6875L32.0688 58.6164C31.5184 59.4845 31.2855 60.5497 31.2855 61.7358H33.2855ZM33.7608 59.6829C34.0866 59.1628 34.5172 58.7592 35.0669 58.4622L34.1163 56.7026C33.2654 57.1622 32.5772 57.805 32.0659 58.6211L33.7608 59.6829ZM35.0669 58.4622C35.6782 58.132 36.3619 57.8809 37.1238 57.7141L36.6958 55.7604C35.7673 55.9638 34.9056 56.2762 34.1163 56.7026L35.0669 58.4622ZM37.1306 57.7125C37.954 57.5261 38.7808 57.3786 39.6113 57.27L39.3518 55.2869C38.4597 55.4036 37.5721 55.562 36.689 55.7619L37.1306 57.7125ZM39.6091 57.2702C40.7321 57.1259 41.6365 57.0183 42.3252 56.9471L42.1194 54.9577C41.4075 55.0314 40.4848 55.1412 39.354 55.2866L39.6091 57.2702ZM42.3352 56.946C43.0774 56.8617 43.761 56.7114 44.2662 56.4209L43.2693 54.6871C43.1306 54.7668 42.7839 54.8822 42.1094 54.9588L42.3352 56.946ZM44.257 56.4261C44.9745 56.0236 45.2628 55.3176 45.2628 54.5881H43.2628C43.2628 54.7003 43.2425 54.7305 43.2491 54.7176C43.2525 54.7109 43.2592 54.7007 43.2688 54.6909C43.278 54.6814 43.2833 54.6791 43.2785 54.6818L44.257 56.4261ZM45.2628 54.5881V54.4915H43.2628V54.5881H45.2628ZM45.2628 54.4915C45.2628 53.1152 44.8816 51.908 43.9962 51.0117L42.5734 52.4172C42.992 52.8411 43.2628 53.4852 43.2628 54.4915H45.2628ZM44.0006 51.0162C43.1008 50.0939 41.817 49.7244 40.3509 49.7244V51.7244C41.5088 51.7244 42.1809 52.015 42.569 52.4128L44.0006 51.0162ZM40.3509 49.7244C38.855 49.7244 37.5458 50.0512 36.5408 50.8259L37.7618 52.4099C38.3022 51.9933 39.126 51.7244 40.3509 51.7244V49.7244ZM36.5408 50.8259C35.6788 51.4904 35.0135 52.2447 34.6143 53.1045L36.4283 53.9467C36.657 53.4541 37.0783 52.9367 37.7618 52.4099L36.5408 50.8259ZM35.8576 52.5838L33.1531 51.6179L32.4804 53.5014L35.185 54.4673L35.8576 52.5838ZM33.7359 52.9536C34.1657 51.9507 34.716 51.2212 35.3636 50.7161L34.1335 49.1391C33.1713 49.8896 32.4337 50.9148 31.8976 52.1657L33.7359 52.9536ZM35.3647 50.7152C36.0746 50.1599 36.8371 49.7807 37.6569 49.5671L37.1527 47.6317C36.0569 47.9172 35.0485 48.4234 34.1325 49.1399L35.3647 50.7152ZM37.6625 49.5657C38.5503 49.3289 39.4134 49.2131 40.2543 49.2131V47.2131C39.2277 47.2131 38.1912 47.3548 37.1472 47.6332L37.6625 49.5657ZM40.2543 49.2131C40.7721 49.2131 41.3925 49.2764 42.1225 49.4133L42.4911 47.4475C41.6756 47.2946 40.9277 47.2131 40.2543 47.2131V49.2131ZM42.1342 49.4154C42.7864 49.5297 43.4239 49.7694 44.0501 50.1451L45.0791 48.4301C44.2565 47.9366 43.3888 47.6048 42.4794 47.4454L42.1342 49.4154ZM44.0543 50.1476C44.6083 50.4763 45.0995 50.9891 45.5117 51.7379L47.2638 50.7735C46.7101 49.7675 45.986 48.9683 45.075 48.4277L44.0543 50.1476ZM45.5117 51.7379C45.884 52.4142 46.1122 53.4031 46.1122 54.7812H48.1122C48.1122 53.2134 47.8575 51.8519 47.2638 50.7735L45.5117 51.7379ZM46.1122 54.7812V67H48.1122V54.7812H46.1122ZM47.1122 66H44.2628V68H47.1122V66ZM45.2628 67V64.4886H43.2628V67H45.2628ZM44.2628 63.4886H44.1179V65.4886H44.2628V63.4886ZM43.2164 64.0559C43.0867 64.3261 42.8433 64.6678 42.4387 65.0797L43.8653 66.4814C44.3622 65.9756 44.7627 65.4561 45.0194 64.9214L43.2164 64.0559ZM42.4387 65.0797C42.0996 65.4249 41.6178 65.7492 40.9579 66.0331L41.7481 67.8703C42.5853 67.5102 43.3029 67.0538 43.8653 66.4814L42.4387 65.0797ZM40.9579 66.0331C40.3675 66.287 39.5967 66.4347 38.6122 66.4347V68.4347C39.7849 68.4347 40.8413 68.2603 41.7481 67.8703L40.9579 66.0331ZM39.0469 65.875C40.3027 65.875 41.4342 65.6282 42.3934 65.0786L41.3992 63.3433C40.8129 63.6791 40.0449 63.875 39.0469 63.875V65.875ZM42.3895 65.0808C43.3095 64.5592 44.0367 63.8638 44.5304 62.9872L42.7878 62.0057C42.4927 62.5296 42.0447 62.9773 41.4031 63.341L42.3895 65.0808ZM44.5261 62.9947C45.0116 62.15 45.2628 61.2426 45.2628 60.2869H43.2628C43.2628 60.8767 43.1115 61.4423 42.7921 61.9982L44.5261 62.9947ZM45.2628 60.2869V57.679H43.2628V60.2869H45.2628ZM43.4946 57.0388C43.5303 56.9959 43.5582 56.9757 43.5614 56.9734C43.5654 56.9705 43.5558 56.9778 43.5258 56.9928C43.4635 57.024 43.3547 57.0678 43.1837 57.118L43.7481 59.0368C43.9876 58.9663 44.2169 58.8833 44.4202 58.7817C44.6133 58.6852 44.8462 58.5409 45.031 58.3192L43.4946 57.0388ZM43.1963 57.1145C42.8366 57.2151 42.4063 57.3086 41.9009 57.3929L42.2297 59.3657C42.7869 59.2728 43.2902 59.1651 43.7355 59.0404L43.1963 57.1145ZM41.9133 57.3909C41.3977 57.4702 40.8946 57.5415 40.404 57.6048L40.6599 59.5884C41.1674 59.5229 41.6866 59.4493 42.2174 59.3676L41.9133 57.3909ZM40.418 57.6031C39.9243 57.6598 39.5198 57.7088 39.2062 57.75L39.4671 59.7329C39.7653 59.6937 40.1576 59.6461 40.646 59.5901L40.418 57.6031ZM39.2073 57.7499C38.4083 57.8541 37.6517 58.0247 36.9402 58.2649L37.5797 60.1599C38.156 59.9653 38.7839 59.822 39.466 59.7331L39.2073 57.7499ZM36.9473 58.2625C36.175 58.5167 35.5064 58.9182 34.9802 59.4873L36.4488 60.845C36.7114 60.561 37.0732 60.3266 37.5726 60.1622L36.9473 58.2625ZM34.9797 59.4879C34.3802 60.1374 34.1349 60.9757 34.1349 61.8807H36.1349C36.1349 61.3368 36.2761 61.0321 36.4493 60.8445L34.9797 59.4879ZM34.1349 61.8807C34.1349 63.1562 34.6289 64.2317 35.6645 64.9486L36.8029 63.3042C36.3735 63.0069 36.1349 62.5853 36.1349 61.8807H34.1349ZM35.6748 64.9557C36.6201 65.5927 37.7666 65.875 39.0469 65.875V63.875C38.0572 63.875 37.3283 63.6582 36.7925 63.2972L35.6748 64.9557ZM60.3784 48.4545H61.3784V47.4545H60.3784V48.4545ZM60.3784 50.8693V51.8693H61.3784V50.8693H60.3784ZM50.7676 50.8693H49.7676V51.8693H50.7676V50.8693ZM50.7676 48.4545V47.4545H49.7676V48.4545H50.7676ZM53.5687 44.0114V43.0114H52.5687V44.0114H53.5687ZM56.4181 44.0114H57.4181V43.0114H56.4181V44.0114ZM56.7683 63.4986L55.9033 64.0003L55.9092 64.0106L55.9154 64.0207L56.7683 63.4986ZM57.6859 64.2955L57.3393 65.2334L57.3514 65.2379L57.3636 65.2421L57.6859 64.2955ZM59.6539 64.4403L59.8119 65.4278L59.8311 65.4247L59.8501 65.4209L59.6539 64.4403ZM60.1369 64.3438L61.1122 64.1229L60.8969 63.1719L59.9408 63.3632L60.1369 64.3438ZM60.7164 66.9034L61.0676 67.8397L61.8844 67.5334L61.6918 66.6826L60.7164 66.9034ZM59.9075 67.1207L59.7026 66.1419L59.6918 66.1442L59.681 66.1467L59.9075 67.1207ZM56.225 66.7223L55.8126 67.6333L55.8162 67.6349L56.225 66.7223ZM54.3173 65.1406L53.4998 65.7166L53.5042 65.7227L54.3173 65.1406ZM59.3784 48.4545V50.8693H61.3784V48.4545H59.3784ZM60.3784 49.8693H50.7676V51.8693H60.3784V49.8693ZM51.7676 50.8693V48.4545H49.7676V50.8693H51.7676ZM50.7676 49.4545H60.3784V47.4545H50.7676V49.4545ZM53.5687 45.0114H56.4181V43.0114H53.5687V45.0114ZM55.4181 44.0114V61.6875H57.4181V44.0114H55.4181ZM55.4181 61.6875C55.4181 62.5563 55.5384 63.3712 55.9033 64.0003L57.6333 62.9969C57.5314 62.8211 57.4181 62.4285 57.4181 61.6875H55.4181ZM55.9154 64.0207C56.2532 64.5724 56.7235 65.0059 57.3393 65.2334L58.0326 63.3575C57.9077 63.3113 57.7663 63.2136 57.6211 62.9764L55.9154 64.0207ZM57.3636 65.2421C57.8506 65.4079 58.3583 65.4886 58.8812 65.4886V63.4886C58.567 63.4886 58.2779 63.4406 58.0082 63.3488L57.3636 65.2421ZM58.8812 65.4886C59.223 65.4886 59.5385 65.4715 59.8119 65.4278L59.496 63.4529C59.3669 63.4735 59.1672 63.4886 58.8812 63.4886V65.4886ZM59.8501 65.4209C60.0513 65.3807 60.2123 65.3485 60.333 65.3243L59.9408 63.3632C59.82 63.3873 59.6591 63.4195 59.4578 63.4598L59.8501 65.4209ZM59.1616 64.5646L59.7411 67.1242L61.6918 66.6826L61.1122 64.1229L59.1616 64.5646ZM60.3653 65.9671C60.2416 66.0135 60.0287 66.0737 59.7026 66.1419L60.1124 68.0995C60.4785 68.0229 60.8049 67.9382 61.0676 67.8397L60.3653 65.9671ZM59.681 66.1467C59.4359 66.2037 59.08 66.2415 58.5914 66.2415V68.2415C59.1654 68.2415 59.6868 68.1987 60.134 68.0947L59.681 66.1467ZM58.5914 66.2415C57.9347 66.2415 57.2847 66.1012 56.6337 65.8097L55.8162 67.6349C56.7107 68.0356 57.6383 68.2415 58.5914 68.2415V66.2415ZM56.6373 65.8113C56.039 65.5405 55.5392 65.1295 55.1304 64.5585L53.5042 65.7227C54.1096 66.5684 54.8815 67.2119 55.8126 67.6333L56.6373 65.8113ZM55.1348 64.5647C54.7808 64.0623 54.5687 63.3836 54.5687 62.4602H52.5687C52.5687 63.6941 52.8557 64.8023 53.4998 65.7166L55.1348 64.5647ZM54.5687 62.4602V44.0114H52.5687V62.4602H54.5687ZM67.508 66.1548L66.9607 66.9918L66.9607 66.9918L67.508 66.1548ZM64.6344 52.8374L63.7341 52.4022L63.733 52.4043L64.6344 52.8374ZM67.5563 49.4446L68.1022 50.2824L68.1035 50.2816L67.5563 49.4446ZM78.0485 50.9659L78.8414 50.3566L78.8414 50.3566L78.0485 50.9659ZM79.2921 54.0085V55.0085H80.4406L80.2826 53.871L79.2921 54.0085ZM76.4426 54.0085L75.4742 54.2576L75.6673 55.0085H76.4426V54.0085ZM74.9938 51.7628L74.3284 52.5093L74.337 52.5169L74.9938 51.7628ZM69.0776 51.642L69.6451 52.4654L69.6468 52.4642L69.0776 51.642ZM67.1337 54.0689L66.2205 53.6614L66.219 53.6647L67.1337 54.0689ZM67.1216 61.4702L66.201 61.8607L66.2036 61.8666L67.1216 61.4702ZM69.0534 63.9453L68.4752 64.7612L68.4789 64.7638L69.0534 63.9453ZM74.0158 64.4403L73.6234 63.5206L73.6234 63.5206L74.0158 64.4403ZM75.5492 63.3295L76.3049 63.9845L76.3049 63.9845L75.5492 63.3295ZM76.4426 61.5909V60.5909H75.6708L75.4753 61.3375L76.4426 61.5909ZM79.2921 61.5909L80.2814 61.7364L80.4499 60.5909H79.2921V61.5909ZM78.0968 64.549L77.2871 63.9622L77.2861 63.9635L78.0968 64.549ZM75.5975 66.6257L76.0391 67.5229L76.0419 67.5215L75.5975 66.6257ZM71.9995 66.3864C70.4236 66.3864 69.1236 66.0164 68.0552 65.3179L66.9607 66.9918C68.4037 67.9353 70.0981 68.3864 71.9995 68.3864V66.3864ZM68.0552 65.3179C66.9644 64.6046 66.1179 63.6208 65.5155 62.3373L63.705 63.1869C64.4549 64.785 65.5402 66.063 66.9607 66.9918L68.0552 65.3179ZM65.5155 62.3373C64.9112 61.0494 64.5961 59.5522 64.5961 57.8239H62.5961C62.5961 59.7982 62.9571 61.5931 63.705 63.1869L65.5155 62.3373ZM64.5961 57.8239C64.5961 56.0637 64.9191 54.5541 65.5358 53.2704L63.733 52.4043C62.9653 54.0023 62.5961 55.817 62.5961 57.8239H64.5961ZM65.5348 53.2725C66.1624 51.9739 67.0195 50.988 68.1022 50.2824L67.0103 48.6068C65.5978 49.5272 64.507 50.803 63.7341 52.4022L65.5348 53.2725ZM68.1035 50.2816C69.178 49.579 70.448 49.2131 71.9512 49.2131V47.2131C70.1059 47.2131 68.4459 47.6681 67.009 48.6076L68.1035 50.2816ZM71.9512 49.2131C73.1295 49.2131 74.1589 49.4307 75.0577 49.8455L75.8958 48.0295C74.7017 47.4784 73.3808 47.2131 71.9512 47.2131V49.2131ZM75.0577 49.8455C75.9649 50.2642 76.6912 50.8409 77.2556 51.5753L78.8414 50.3566C78.0696 49.3523 77.0814 48.5767 75.8958 48.0295L75.0577 49.8455ZM77.2556 51.5753C77.8109 52.2978 78.1628 53.1468 78.3016 54.1461L80.2826 53.871C80.0994 52.5521 79.6222 51.3726 78.8414 50.3566L77.2556 51.5753ZM79.2921 53.0085H76.4426V55.0085H79.2921V53.0085ZM77.4111 53.7595C77.1367 52.6921 76.53 51.7747 75.6506 51.0087L74.337 52.5169C74.9547 53.0549 75.314 53.6346 75.4742 54.2576L77.4111 53.7595ZM75.6592 51.0163C74.6907 50.1531 73.4331 49.7727 71.9995 49.7727V51.7727C73.0772 51.7727 73.8158 52.0524 74.3284 52.5093L75.6592 51.0163ZM71.9995 49.7727C70.7047 49.7727 69.528 50.114 68.5084 50.8199L69.6468 52.4642C70.3014 52.011 71.0727 51.7727 71.9995 51.7727V49.7727ZM68.51 50.8187C67.5097 51.5082 66.7516 52.4709 66.2205 53.6614L68.0469 54.4763C68.4495 53.574 68.9873 52.9189 69.6451 52.4654L68.51 50.8187ZM66.219 53.6647C65.6924 54.8565 65.4455 56.2192 65.4455 57.7273H67.4455C67.4455 56.4342 67.6574 55.358 68.0484 54.4731L66.219 53.6647ZM65.4455 57.7273C65.4455 59.2628 65.6869 60.6487 66.201 61.8607L68.0422 61.0796C67.6549 60.1666 67.4455 59.0572 67.4455 57.7273H65.4455ZM66.2036 61.8666C66.7247 63.0735 67.4767 64.0535 68.4752 64.7612L69.6317 63.1294C68.9721 62.662 68.4361 61.9918 68.0397 61.0737L66.2036 61.8666ZM68.4789 64.7638C69.5014 65.4815 70.6889 65.8267 71.9995 65.8267V63.8267C71.0563 63.8267 70.2797 63.5843 69.628 63.1268L68.4789 64.7638ZM71.9995 65.8267C72.8576 65.8267 73.6655 65.677 74.4082 65.3601L73.6234 63.5206C73.1587 63.7188 72.6224 63.8267 71.9995 63.8267V65.8267ZM74.4082 65.3601C75.1477 65.0446 75.7842 64.5853 76.3049 63.9845L74.7935 62.6746C74.4771 63.0397 74.0913 63.3209 73.6234 63.5206L74.4082 65.3601ZM76.3049 63.9845C76.833 63.3751 77.1978 62.6546 77.41 61.8443L75.4753 61.3375C75.3333 61.8795 75.1025 62.3181 74.7935 62.6746L76.3049 63.9845ZM76.4426 62.5909H79.2921V60.5909H76.4426V62.5909ZM78.3027 61.4454C78.1647 62.3842 77.8263 63.2181 77.2871 63.9622L78.9065 65.1359C79.639 64.1252 80.0975 62.987 80.2814 61.7364L78.3027 61.4454ZM77.2861 63.9635C76.7609 64.6907 76.058 65.2809 75.153 65.7299L76.0419 67.5215C77.2137 66.9402 78.177 66.146 78.9074 65.1345L77.2861 63.9635ZM75.1559 65.7285C74.2869 66.1562 73.2438 66.3864 71.9995 66.3864V68.3864C73.4919 68.3864 74.8475 68.1094 76.0391 67.5229L75.1559 65.7285ZM86.307 67V68H87.307V67H86.307ZM83.4576 67H82.4576V68H83.4576V67ZM83.4576 42.2727V41.2727H82.4576V42.2727H83.4576ZM86.307 42.2727H87.307V41.2727H86.307V42.2727ZM86.307 51.3523H85.307V52.3523H86.307V51.3523ZM86.5485 51.3523V52.3523H87.1928L87.4591 51.7655L86.5485 51.3523ZM88.5044 49.0703L89.0483 49.9095L89.0502 49.9082L88.5044 49.0703ZM95.3262 48.9737L94.8552 49.8559L94.861 49.859L95.3262 48.9737ZM97.5357 51.2798L96.6426 51.7298L96.6469 51.7381L97.5357 51.2798ZM98.3326 67V68H99.3326V67H98.3326ZM95.4831 67H94.4831V68H95.4831V67ZM94.3361 51.9922L93.6041 52.6735L93.6111 52.6809L94.3361 51.9922ZM88.6735 51.3643L88.2034 50.4817L88.1994 50.4839L88.6735 51.3643ZM86.9348 53.0909L86.0637 52.5998L86.0598 52.6068L86.9348 53.0909ZM85.307 55.8438V67H87.307V55.8438H85.307ZM86.307 66H83.4576V68H86.307V66ZM84.4576 67V42.2727H82.4576V67H84.4576ZM83.4576 43.2727H86.307V41.2727H83.4576V43.2727ZM85.307 42.2727V51.3523H87.307V42.2727H85.307ZM86.307 52.3523H86.5485V50.3523H86.307V52.3523ZM87.4591 51.7655C87.816 50.9789 88.3421 50.3672 89.0483 49.9095L87.9605 48.2312C86.9282 48.9003 86.1502 49.8099 85.6378 50.939L87.4591 51.7655ZM89.0502 49.9082C89.7133 49.4763 90.6697 49.2131 92.0059 49.2131V47.2131C90.4282 47.2131 89.0503 47.5213 87.9586 48.2324L89.0502 49.9082ZM92.0059 49.2131C93.1339 49.2131 94.0736 49.4386 94.8552 49.8559L95.7971 48.0916C94.6791 47.4947 93.4053 47.2131 92.0059 47.2131V49.2131ZM94.861 49.859C95.6107 50.2529 96.205 50.8612 96.6427 51.7298L98.4287 50.8298C97.82 49.6218 96.9413 48.6927 95.7913 48.0885L94.861 49.859ZM96.6469 51.7381C97.0829 52.5837 97.3326 53.725 97.3326 55.2159H99.3326C99.3326 53.5194 99.051 52.0365 98.4245 50.8215L96.6469 51.7381ZM97.3326 55.2159V67H99.3326V55.2159H97.3326ZM98.3326 66H95.4831V68H98.3326V66ZM96.4831 67V55.4091H94.4831V67H96.4831ZM96.4831 55.4091C96.4831 53.7657 96.0538 52.3484 95.0611 51.3034L93.6111 52.6809C94.1478 53.2458 94.4831 54.1064 94.4831 55.4091H96.4831ZM95.0681 51.3109C94.0833 50.2527 92.7437 49.7727 91.1848 49.7727V51.7727C92.3145 51.7727 93.0757 52.1057 93.6041 52.6735L95.0681 51.3109ZM91.1848 49.7727C90.106 49.7727 89.1044 50.0019 88.2034 50.4817L89.1436 52.247C89.7236 51.938 90.3963 51.7727 91.1848 51.7727V49.7727ZM88.1994 50.4839C87.2929 50.972 86.5789 51.6861 86.0638 52.5998L87.8059 53.582C88.144 52.9825 88.5891 52.5455 89.1476 52.2448L88.1994 50.4839ZM86.0598 52.6068C85.5414 53.544 85.307 54.6371 85.307 55.8438H87.307C87.307 54.8932 87.4912 54.1511 87.8099 53.575L86.0598 52.6068ZM103.545 67H102.545V68H103.545V67ZM103.545 48.4545V47.4545H102.545V48.4545H103.545ZM106.395 48.4545H107.395V47.4545H106.395V48.4545ZM106.395 67V68H107.395V67H106.395ZM103.558 44.7962L102.865 45.5179L102.873 45.5248L103.558 44.7962ZM103.558 42.0675L102.873 41.3388L102.865 41.3458L103.558 42.0675ZM106.419 42.0675L105.727 42.7892L105.734 42.7961L106.419 42.0675ZM106.419 44.7962L105.734 44.0675L105.727 44.0745L106.419 44.7962ZM104.545 67V48.4545H102.545V67H104.545ZM103.545 49.4545H106.395V47.4545H103.545V49.4545ZM105.395 48.4545V67H107.395V48.4545H105.395ZM106.395 66H103.545V68H106.395V66ZM104.994 44.3636C104.692 44.3636 104.458 44.2705 104.242 44.0675L102.873 45.5248C103.462 46.0785 104.186 46.3636 104.994 46.3636V44.3636ZM104.25 44.0745C104.046 43.8787 103.966 43.6819 103.966 43.4318H101.966C101.966 44.2442 102.281 44.957 102.865 45.5178L104.25 44.0745ZM103.966 43.4318C103.966 43.1817 104.046 42.985 104.25 42.7892L102.865 41.3458C102.281 41.9066 101.966 42.6194 101.966 43.4318H103.966ZM104.242 42.7961C104.458 42.5932 104.692 42.5 104.994 42.5V40.5C104.186 40.5 103.462 40.7851 102.873 41.3388L104.242 42.7961ZM104.994 42.5C105.296 42.5 105.522 42.5926 105.727 42.7892L107.111 41.3458C106.527 40.7857 105.803 40.5 104.994 40.5V42.5ZM105.734 42.7961C105.945 42.9939 106.023 43.1886 106.023 43.4318H108.023C108.023 42.6125 107.698 41.8977 107.104 41.3388L105.734 42.7961ZM106.023 43.4318C106.023 43.675 105.945 43.8698 105.734 44.0675L107.104 45.5248C107.698 44.9659 108.023 44.2511 108.023 43.4318H106.023ZM105.727 44.0745C105.522 44.271 105.296 44.3636 104.994 44.3636V46.3636C105.803 46.3636 106.527 46.078 107.111 45.5178L105.727 44.0745ZM114.463 67V68H115.463V67H114.463ZM111.614 67H110.614V68H111.614V67ZM111.614 48.4545V47.4545H110.614V48.4545H111.614ZM114.367 48.4545H115.367V47.4545H114.367V48.4545ZM114.367 51.3523H113.367V52.3523H114.367V51.3523ZM114.608 51.3523V52.3523H115.248L115.516 51.7713L114.608 51.3523ZM116.588 49.0824L117.131 49.9226L117.136 49.9191L116.588 49.0824ZM123.313 48.9858L122.833 49.8631L122.839 49.8663L123.313 48.9858ZM125.511 51.304L124.618 51.754L124.619 51.7568L125.511 51.304ZM126.296 67V68H127.296V67H126.296ZM123.446 67H122.446V68H123.446V67ZM122.311 52.0043L121.576 52.6819L121.579 52.6855L122.311 52.0043ZM116.757 51.3643L116.275 50.4883L116.271 50.4907L116.757 51.3643ZM115.079 53.0909L114.2 52.614L114.2 52.614L115.079 53.0909ZM113.463 55.8438V67H115.463V55.8438H113.463ZM114.463 66H111.614V68H114.463V66ZM112.614 67V48.4545H110.614V67H112.614ZM111.614 49.4545H114.367V47.4545H111.614V49.4545ZM113.367 48.4545V51.3523H115.367V48.4545H113.367ZM114.367 52.3523H114.608V50.3523H114.367V52.3523ZM115.516 51.7713C115.87 51.0047 116.402 50.393 117.131 49.9226L116.046 48.2422C115.004 48.9148 114.216 49.8163 113.7 50.9332L115.516 51.7713ZM117.136 49.9191C117.814 49.4755 118.749 49.2131 120.017 49.2131V47.2131C118.484 47.2131 117.134 47.5302 116.041 48.2457L117.136 49.9191ZM120.017 49.2131C121.134 49.2131 122.062 49.4411 122.833 49.8631L123.793 48.1085C122.681 47.5001 121.412 47.2131 120.017 47.2131V49.2131ZM122.839 49.8663C123.585 50.2677 124.178 50.8819 124.618 51.754L126.404 50.854C125.797 49.6493 124.926 48.7181 123.787 48.1053L122.839 49.8663ZM124.619 51.7568C125.05 52.6051 125.296 53.7411 125.296 55.2159H127.296C127.296 53.5355 127.018 52.0635 126.402 50.8512L124.619 51.7568ZM125.296 55.2159V67H127.296V55.2159H125.296ZM126.296 66H123.446V68H126.296V66ZM124.446 67V55.4091H122.446V67H124.446ZM124.446 55.4091C124.446 53.7804 124.02 52.3728 123.043 51.323L121.579 52.6855C122.115 53.2616 122.446 54.124 122.446 55.4091H124.446ZM123.047 51.3266C122.066 50.2626 120.74 49.7727 119.196 49.7727V51.7727C120.292 51.7727 121.043 52.1039 121.576 52.6819L123.047 51.3266ZM119.196 49.7727C118.137 49.7727 117.155 50.0038 116.275 50.4883L117.24 52.2404C117.792 51.9361 118.436 51.7727 119.196 51.7727V49.7727ZM116.271 50.4907C115.386 50.9832 114.695 51.7013 114.2 52.614L115.958 53.5678C116.284 52.9672 116.712 52.5343 117.244 52.238L116.271 50.4907ZM114.2 52.614C113.692 53.5496 113.463 54.64 113.463 55.8438H115.463C115.463 54.8903 115.645 54.1455 115.958 53.5678L114.2 52.614ZM135.439 73.8097L135.775 72.8681L135.769 72.8657L135.439 73.8097ZM132.963 72.4332L133.618 71.6772L133.617 71.6766L132.963 72.4332ZM131.406 70.6222L130.831 69.8037L130.07 70.3386L130.548 71.1367L131.406 70.6222ZM133.676 69.0284L134.471 68.4224L133.888 67.6573L133.101 68.21L133.676 69.0284ZM134.654 70.1875L135.4 69.5223L135.394 69.5155L134.654 70.1875ZM136.272 71.3345L136.702 70.4318L136.697 70.4297L136.272 71.3345ZM142.695 70.7429L143.292 71.5453L143.292 71.5453L142.695 70.7429ZM144.156 63.571H145.156V62.571H144.156V63.571ZM143.914 63.571V62.571H143.357L143.064 63.0447L143.914 63.571ZM143.021 64.8267L142.23 64.2145L142.229 64.2164L143.021 64.8267ZM141.379 66.1428L141.85 67.0248L141.854 67.0229L141.379 66.1428ZM134.473 65.6477L133.959 66.5057L133.962 66.5073L134.473 65.6477ZM131.659 62.5568L130.767 63.0083L130.769 63.0125L131.659 62.5568ZM131.635 52.6683L132.539 53.0969L132.54 53.0949L131.635 52.6683ZM134.424 49.3842L134.969 50.2232L134.973 50.2206L134.424 49.3842ZM141.427 48.8168L140.933 49.6863L140.945 49.6928L141.427 48.8168ZM143.069 50.169L142.268 50.767L142.273 50.7741L142.279 50.7812L143.069 50.169ZM143.963 51.4006L143.124 51.9456L143.42 52.4006H143.963V51.4006ZM144.252 51.4006V52.4006H145.252V51.4006H144.252ZM144.252 48.4545V47.4545H143.252V48.4545H144.252ZM147.005 48.4545H148.005V47.4545H147.005V48.4545ZM145.919 71.419L145.109 70.8316L145.104 70.839L145.919 71.419ZM143.021 73.6286L142.662 72.695L142.655 72.698L143.021 73.6286ZM141.789 63.3658L141.237 62.5324L141.237 62.5324L141.789 63.3658ZM143.588 61.108L144.511 61.4936L144.511 61.4936L143.588 61.108ZM143.6 54.0447L144.531 53.6784L144.531 53.6784L143.6 54.0447ZM141.814 51.642L141.221 52.4479L141.221 52.4479L141.814 51.642ZM135.873 51.6903L135.268 50.8942L135.264 50.8971L135.873 51.6903ZM134.074 54.1534L133.143 53.7896L133.14 53.7959L134.074 54.1534ZM134.086 60.9993L133.16 61.3759L133.164 61.385L134.086 60.9993ZM135.897 63.3175L135.32 64.134L135.329 64.1406L135.897 63.3175ZM138.988 73.3409C137.693 73.3409 136.63 73.1737 135.775 72.8681L135.102 74.7512C136.227 75.1539 137.531 75.3409 138.988 75.3409V73.3409ZM135.769 72.8657C134.874 72.553 134.166 72.1514 133.618 71.6772L132.309 73.1892C133.081 73.8581 134.023 74.3741 135.109 74.7536L135.769 72.8657ZM133.617 71.6766C133.034 71.1725 132.588 70.6483 132.263 70.1077L130.548 71.1367C130.997 71.8839 131.589 72.5671 132.31 73.1899L133.617 71.6766ZM131.981 71.4406L134.25 69.8468L133.101 68.21L130.831 69.8037L131.981 71.4406ZM132.88 69.6345C133.16 70.002 133.506 70.411 133.913 70.8595L135.394 69.5155C135.012 69.0947 134.706 68.731 134.471 68.4224L132.88 69.6345ZM133.907 70.8527C134.412 71.4197 135.072 71.8751 135.846 72.2393L136.697 70.4297C136.103 70.15 135.684 69.8407 135.4 69.5223L133.907 70.8527ZM135.841 72.2372C136.715 72.6538 137.784 72.8295 138.988 72.8295V70.8295C137.955 70.8295 137.213 70.6753 136.702 70.4319L135.841 72.2372ZM138.988 72.8295C140.649 72.8295 142.108 72.4255 143.292 71.5453L142.098 69.9405C141.334 70.5092 140.322 70.8295 138.988 70.8295V72.8295ZM143.292 71.5453C144.587 70.5817 145.156 69.1043 145.156 67.3381H143.156C143.156 68.6627 142.751 69.4552 142.098 69.9405L143.292 71.5453ZM145.156 67.3381V63.571H143.156V67.3381H145.156ZM144.156 62.571H143.914V64.571H144.156V62.571ZM143.064 63.0447C142.881 63.3412 142.606 63.7291 142.23 64.2145L143.812 65.4389C144.209 64.9262 144.53 64.477 144.765 64.0974L143.064 63.0447ZM142.229 64.2164C141.959 64.5671 141.534 64.923 140.904 65.2626L141.854 67.0229C142.657 66.5898 143.327 66.0683 143.813 65.437L142.229 64.2164ZM140.908 65.2607C140.399 65.5323 139.624 65.7102 138.505 65.7102V67.7102C139.801 67.7102 140.942 67.5099 141.85 67.0248L140.908 65.2607ZM138.505 65.7102C137.173 65.7102 136.008 65.3972 134.984 64.7882L133.962 66.5073C135.32 67.3149 136.843 67.7102 138.505 67.7102V65.7102ZM134.986 64.7897C133.98 64.1872 133.165 63.3042 132.55 62.1011L130.769 63.0125C131.538 64.514 132.599 65.6916 133.959 66.5057L134.986 64.7897ZM132.552 62.1054C131.955 60.9261 131.633 59.4475 131.633 57.6307H129.633C129.633 59.6775 129.995 61.4829 130.767 63.0083L132.552 62.1054ZM131.633 57.6307C131.633 55.8475 131.947 54.3455 132.539 53.0969L130.732 52.2398C129.988 53.8084 129.633 55.6146 129.633 57.6307H131.633ZM132.54 53.0949C133.137 51.8286 133.949 50.8844 134.969 50.2232L133.88 48.5453C132.517 49.4295 131.47 50.6747 130.731 52.2418L132.54 53.0949ZM134.973 50.2206C135.985 49.5568 137.167 49.2131 138.554 49.2131V47.2131C136.817 47.2131 135.246 47.6501 133.876 48.5479L134.973 50.2206ZM138.554 49.2131C139.665 49.2131 140.431 49.4008 140.933 49.6862L141.921 47.9473C141.007 47.4278 139.857 47.2131 138.554 47.2131V49.2131ZM140.945 49.6928C141.571 50.0377 141.996 50.4026 142.268 50.767L143.871 49.5711C143.386 48.9213 142.716 48.3847 141.909 47.9408L140.945 49.6928ZM142.279 50.7812C142.657 51.2704 142.936 51.6565 143.124 51.9456L144.801 50.8556C144.57 50.5007 144.254 50.0658 143.86 49.5569L142.279 50.7812ZM143.963 52.4006H144.252V50.4006H143.963V52.4006ZM145.252 51.4006V48.4545H143.252V51.4006H145.252ZM144.252 49.4545H147.005V47.4545H144.252V49.4545ZM146.005 48.4545V67.5312H148.005V48.4545H146.005ZM146.005 67.5312C146.005 68.9757 145.678 70.0482 145.109 70.8316L146.728 72.0064C147.608 70.7936 148.005 69.2743 148.005 67.5312H146.005ZM145.104 70.839C144.508 71.6762 143.705 72.2946 142.662 72.695L143.38 74.5621C144.768 74.0288 145.897 73.1742 146.733 71.999L145.104 70.839ZM142.655 72.698C141.579 73.121 140.362 73.3409 138.988 73.3409V75.3409C140.577 75.3409 142.048 75.0859 143.387 74.5592L142.655 72.698ZM138.892 65.1506C140.19 65.1506 141.358 64.8518 142.342 64.1991L141.237 62.5324C140.643 62.9261 139.879 63.1506 138.892 63.1506V65.1506ZM142.342 64.1991C143.316 63.5533 144.034 62.6347 144.511 61.4936L142.666 60.7223C142.322 61.5453 141.841 62.1318 141.237 62.5324L142.342 64.1991ZM144.511 61.4936C144.985 60.36 145.204 59.047 145.204 57.5824H143.204C143.204 58.8545 143.013 59.8919 142.666 60.7223L144.511 61.4936ZM145.204 57.5824C145.204 56.1472 144.988 54.8396 144.531 53.6784L142.67 54.4111C143.018 55.2944 143.204 56.3453 143.204 57.5824H145.204ZM144.531 53.6784C144.068 52.5028 143.365 51.5407 142.406 50.8362L141.221 52.4479C141.84 52.9025 142.328 53.5422 142.67 54.4111L144.531 53.6784ZM142.406 50.8362C141.415 50.1085 140.223 49.7727 138.892 49.7727V51.7727C139.878 51.7727 140.634 52.0165 141.221 52.4479L142.406 50.8362ZM138.892 49.7727C137.51 49.7727 136.279 50.1259 135.268 50.8942L136.478 52.4865C137.077 52.0313 137.859 51.7727 138.892 51.7727V49.7727ZM135.264 50.8971C134.308 51.6309 133.605 52.6071 133.143 53.7896L135.006 54.5173C135.349 53.6391 135.844 52.9732 136.482 52.4836L135.264 50.8971ZM133.14 53.7959C132.697 54.955 132.483 56.2212 132.483 57.5824H134.483C134.483 56.4322 134.663 55.4125 135.008 54.5109L133.14 53.7959ZM132.483 57.5824C132.483 58.9735 132.7 60.2444 133.16 61.3759L135.013 60.6227C134.668 59.7741 134.483 58.767 134.483 57.5824H132.483ZM133.164 61.385C133.64 62.5239 134.356 63.4524 135.32 64.134L136.475 62.501C135.845 62.0556 135.354 61.4387 135.009 60.6136L133.164 61.385ZM135.329 64.1406C136.335 64.8343 137.542 65.1506 138.892 65.1506V63.1506C137.858 63.1506 137.07 62.9115 136.465 62.4944L135.329 64.1406ZM152.765 66.5533L153.472 65.8462L153.472 65.8462L152.765 66.5533ZM155.831 63.4865L156.538 62.7794L156.538 62.7794L155.831 63.4865ZM156.169 66.1065L155.316 65.5859L155.311 65.5936L155.306 65.6014L156.169 66.1065ZM155.385 66.9034L155.899 67.7609L155.905 67.7572L155.385 66.9034ZM154.298 66.1932C153.971 66.1932 153.713 66.0879 153.472 65.8462L152.057 67.2604C152.669 67.8718 153.433 68.1932 154.298 68.1932V66.1932ZM153.472 65.8462C153.23 65.6044 153.125 65.3465 153.125 65.0199H151.125C151.125 65.8846 151.446 66.6489 152.057 67.2604L153.472 65.8462ZM153.125 65.0199C153.125 64.6933 153.23 64.4354 153.472 64.1936L152.057 62.7794C151.446 63.3908 151.125 64.1552 151.125 65.0199H153.125ZM153.472 64.1936C153.713 63.9518 153.971 63.8466 154.298 63.8466V61.8466C153.433 61.8466 152.669 62.168 152.057 62.7794L153.472 64.1936ZM154.298 63.8466C154.625 63.8466 154.882 63.9518 155.124 64.1936L156.538 62.7794C155.927 62.168 155.163 61.8466 154.298 61.8466V63.8466ZM155.124 64.1936C155.366 64.4354 155.471 64.6933 155.471 65.0199H157.471C157.471 64.1552 157.15 63.3908 156.538 62.7794L155.124 64.1936ZM155.471 65.0199C155.471 65.2346 155.419 65.4161 155.316 65.5859L157.023 66.6271C157.322 66.137 157.471 65.594 157.471 65.0199H155.471ZM155.306 65.6014C155.198 65.787 155.054 65.9335 154.864 66.0496L155.905 67.7572C156.375 67.4708 156.755 67.0861 157.032 66.6117L155.306 65.6014ZM154.87 66.0459C154.715 66.1391 154.533 66.1932 154.298 66.1932V68.1932C154.868 68.1932 155.41 68.0541 155.899 67.7609L154.87 66.0459ZM162.128 66.5533L162.835 65.8462L162.835 65.8462L162.128 66.5533ZM165.195 63.4865L165.902 62.7794L165.902 62.7794L165.195 63.4865ZM165.533 66.1065L164.679 65.5859L164.674 65.5936L164.67 65.6014L165.533 66.1065ZM164.748 66.9034L165.262 67.7609L165.268 67.7572L164.748 66.9034ZM163.661 66.1932C163.335 66.1932 163.077 66.0879 162.835 65.8462L161.421 67.2604C162.032 67.8718 162.797 68.1932 163.661 68.1932V66.1932ZM162.835 65.8462C162.593 65.6044 162.488 65.3465 162.488 65.0199H160.488C160.488 65.8846 160.809 66.6489 161.421 67.2604L162.835 65.8462ZM162.488 65.0199C162.488 64.6933 162.593 64.4354 162.835 64.1936L161.421 62.7794C160.809 63.3908 160.488 64.1552 160.488 65.0199H162.488ZM162.835 64.1936C163.077 63.9518 163.335 63.8466 163.661 63.8466V61.8466C162.797 61.8466 162.032 62.168 161.421 62.7794L162.835 64.1936ZM163.661 63.8466C163.988 63.8466 164.246 63.9518 164.487 64.1936L165.902 62.7794C165.29 62.168 164.526 61.8466 163.661 61.8466V63.8466ZM164.487 64.1936C164.729 64.4354 164.835 64.6933 164.835 65.0199H166.835C166.835 64.1552 166.513 63.3908 165.902 62.7794L164.487 64.1936ZM164.835 65.0199C164.835 65.2346 164.782 65.4161 164.679 65.5859L166.386 66.6271C166.685 66.137 166.835 65.594 166.835 65.0199H164.835ZM164.67 65.6014C164.561 65.787 164.418 65.9335 164.227 66.0496L165.268 67.7572C165.738 67.4708 166.118 67.0861 166.396 66.6117L164.67 65.6014ZM164.233 66.0459C164.078 66.1391 163.896 66.1932 163.661 66.1932V68.1932C164.231 68.1932 164.774 68.0541 165.262 67.7609L164.233 66.0459Z" fill="black"/>
</g>
<defs>
<filter id="filter0_b_6_40" x="-3.27563" y="-3.5" width="173.11" height="81.8408" filterUnits="userSpaceOnUse" color-interpolation-filters="sRGB">
<feFlood flood-opacity="0" result="BackgroundImageFix"/>
<feGaussianBlur in="BackgroundImage" stdDeviation="2"/>
<feComposite in2="SourceAlpha" operator="in" result="effect1_backgroundBlur_6_40"/>
<feBlend mode="normal" in="SourceGraphic" in2="effect1_backgroundBlur_6_40" result="shape"/>
</filter>
</defs>
</svg>
